/* XPM */
static char *result[] = {
/* columns rows colors chars-per-pixel */
"60 60 174 2 ",
"   c #7DA504",
".  c #7CAA00",
"X  c #7EA50B",
"o  c #7EAD0B",
"O  c #7FB200",
"+  c #7EB60D",
"@  c #7EA411",
"#  c #7EB411",
"$  c #79BC15",
"%  c #7FB31A",
"&  c #7BBB1D",
"*  c #7ABA25",
"=  c #78B332",
"-  c #83A702",
";  c #89A007",
":  c #84AD03",
">  c #89AF01",
",  c #85A208",
"<  c #85AD0D",
"1  c #8AAE0D",
"2  c #98A70C",
"3  c #90A90E",
"4  c #85B202",
"5  c #8AB403",
"6  c #86B900",
"7  c #8CB903",
"8  c #85B20D",
"9  c #8AB20D",
"0  c #86B90F",
"q  c #8EB90B",
"w  c #92B404",
"e  c #91BD02",
"r  c #92B30C",
"t  c #92BB0C",
"y  c #81A615",
"u  c #85AD13",
"i  c #8BAE12",
"p  c #86AB1A",
"a  c #8AAE1C",
"s  c #9FA412",
"d  c #93AD12",
"f  c #9BAD15",
"g  c #93AC1D",
"h  c #9DAB1C",
"j  c #85B313",
"k  c #8BB312",
"l  c #83B914",
"z  c #8DB914",
"x  c #86B31A",
"c  c #8DB41A",
"v  c #85BD1A",
"b  c #8BBB1B",
"n  c #92B314",
"m  c #9CB215",
"M  c #92BB15",
"N  c #92B51A",
"B  c #9CB51B",
"V  c #92BA1B",
"C  c #9ABA1B",
"Z  c #A5A800",
"A  c #A1A916",
"S  c #B3A61A",
"D  c #A1B31D",
"F  c #A8B71E",
"G  c #84A724",
"H  c #86AB22",
"J  c #8AAD24",
"K  c #87AD2B",
"L  c #8CAD2C",
"P  c #9AA721",
"I  c #94AB29",
"U  c #8EB324",
"Y  c #87B12B",
"T  c #8FB32B",
"R  c #92B524",
"E  c #94BB21",
"W  c #9ABF22",
"Q  c #92B42A",
"!  c #98B92E",
"~  c #8CAB35",
"^  c #8FAE3D",
"/  c #90AF35",
"(  c #90AF38",
")  c #87B431",
"_  c #8EB234",
"`  c #8EB538",
"'  c #95B633",
"]  c #95B933",
"[  c #9ABD30",
"{  c #93B43A",
"}  c #9FB73B",
"|  c #96B83D",
" . c #98BB3E",
".. c #BDAC28",
"X. c #ADB621",
"o. c #A4B821",
"O. c #B0B922",
"+. c #BCB22F",
"@. c #BDBC2C",
"#. c #B3AE36",
"$. c #CABA2F",
"%. c #D1B136",
"&. c #D1B43C",
"*. c #96C014",
"=. c #9BC615",
"-. c #99C21C",
";. c #89C122",
":. c #95C43E",
">. c #9EC23E",
",. c #A1C535",
"<. c #A4C43A",
"1. c #95AD4F",
"2. c #92B340",
"3. c #97B845",
"4. c #9BB945",
"5. c #96B848",
"6. c #9EBC4B",
"7. c #93AE52",
"8. c #A2B74E",
"9. c #B3B142",
"0. c #A1BF54",
"q. c #A0BC5F",
"w. c #C4AE4B",
"e. c #C5B44C",
"r. c #D2B241",
"t. c #C4BE5E",
"y. c #8FC24B",
"u. c #9EC141",
"i. c #9FC049",
"p. c #A7CA4B",
"a. c #B4C34C",
"s. c #A0C050",
"d. c #A7C851",
"f. c #ADCF54",
"g. c #A1C058",
"h. c #AECC5E",
"j. c #BCC95F",
"k. c #B0D257",
"l. c #A5C263",
"z. c #ADC76C",
"x. c #B6D766",
"c. c #BDDE6B",
"v. c #B1CA74",
"b. c #B2CA7C",
"n. c #B7D571",
"m. c #BCD671",
"M. c #BFDE77",
"N. c #B6D079",
"B. c #BAD57B",
"V. c #BDDA7D",
"C. c #C4E37C",
"Z. c #B1C385",
"A. c #BDD48E",
"S. c #B6C791",
"D. c #B8CC97",
"F. c #C3D58C",
"G. c #C9D38D",
"H. c #C2DE89",
"J. c #C6D49C",
"K. c #C3DE9C",
"L. c #CBEA83",
"P. c #CCE394",
"I. c #CCE894",
"U. c #C4D9A4",
"Y. c #DDDDA7",
"T. c #CAD7BB",
"R. c #CAE6A9",
"E. c #CEE1B4",
"W. c #DBE5B0",
"Q. c #D6EAB3",
"!. c #D9ECBF",
"~. c #E7EBCA",
"^. c #E4F9C6",
"/. c #E9FBCB",
/* pixels */
"k k k k k k 9 k z i < k k k k k k k k k k k k k k k k k k k k k k < k 8 k k k k M @ 2.H.I.g.G N k k k k k 9 k k k k k 9 ",
"k k k k k k k k k 1 k 9 z k k k k k k k z z k k k k k k k k k k 9 k k k k i k k 7 - G 5.s.` j 9 k k k k k k k k k k k j ",
"k k k k k k k k N z 9 k k k k k k k k k k N k k 1 k k k k k k k k k k k 9 k < k 5 5 j y u c z 5 k k k k k k k k k k k k ",
"k k k k k k k k k k z k k k k k z k i k k k k k k k k z k k k k < i 8 9 k k k k 9 M M 5 4 *.C k k k k k k k k k k k k k ",
"k 9 k k k k k k z k k N k k k k k k k k k k k k k k k k k N k k 8 1 1 i k k z N p k z t 9 9 k c k k k k k k k k k 9 k k ",
"k j k k k k 9 k k k k k k 1 k z z k k 9 k z k k k k k k k k k 9 < < 8 k k z k k U j < k k < k k k k 9 k k k k 9 k k k k ",
"k k k k k k k k k k k k 8 k k k k k k i k k k k k k z k k k k k k u 9 k k k 9 k k c c k k k z 9 k k k k k k k k k k k k ",
"k k k k k k k k j k k k 9 i k N k k k k k k k k k k k k z k k k k k k k k 1 8 < 5 z c p k M t : k k j k k k k k k k k k ",
": q 9 < N -.z < 1.4.a : =.M   b k k k k k k k k 7   _ M.C. .  6 1 k l j 9 z b l < 9 k k k k k k k k k k k k k c z k k k ",
"k c a p y p c z S.K.h.J V k o p k k 9 j k 9 u k t < K 6.s.' k t n z l 8 1 d k < k k k k k k k k 9 k k k k M k k k k k k ",
"k H u.d.{ H c : T./.P.{ a c k j < k 1 k 9 k 1 k z c a p a R N 9 n N j 9 d D 2 > k k k k z k k k k k k k k k k k k k k k ",
"u y p.c.i.U n . Z.P.m.I p c c k 9 k k k 1 j k 9 < k k - - b k < d z 8 d D F F B k k k k k k k i 1 8 k k k k k k k k k k ",
"*.X U >.G u t 6 L ! R 1 < 5 9 8 k k k k k k k z p u 9 5 z 9 k u i k 9 9 D O.F B k k k k k < < 8 k k k k k k k z k k k k ",
"M : < a X : t 7 > : > w q 9 5 8 k k N k c z N z M k k q z 8 i k d k 8 u m D B i k 1 k < k 1 < < 9 j k k k k k k k k k k ",
"j k z z 9 z z < w > 9 M z k M z k k k z k k z k z k k a i j k k N z l j 9 r k l < 9 8 k k 8 k 1 k 9 k k k k k k k k 9 k ",
"y E M 5 9 N a p g a N a y k V z k k k k k k k k : n b p p k k : k *.z z 9 N k l 8 < i k k k k k i k k k k k k k k k k k ",
"k k k k k k k k k k k z k k k < N c k j k c c k ; ) * + Z r.e.g k k k k k k k k k k k k k k k k k k k k z N k k i k k k ",
"9 k k k k 9 k k 1 k k c k k k 9 k c k < u k k k 1 H = ` 9.w.#.f k k k k k k k k k k k 9 9 i k k k k k k k k k k k z b k ",
"k k k k k k k k k k k M N z k j u k c k < u k c w j y.A.Y.t.h n k k k 9 k k k k k k k k k k k z k k 9 k k k k < k z k k ",
"k k k k k k k k 8 k k k k k k k j c c k u j c k f : :.R.W.a.9 x k k k k 8 k k k z k k k k k z N k k i z k k k 9 9 i k k ",
"k k k k k k k k k k k k k k k k k c k k c b k k Q : j 5.6.n < Y k k k k k k k k k k k k k k k k k k < k k k k k 1 < k k ",
"k k k k k k k k k k k k k k k k k c c k V V N j R 9 4 - < : 8 G k k k k k k k k k k 1 < i 8 k 9 z k < k k k k k < < 1 9 ",
"k 9 k k k k k k k k k k k k k k k b N k c c c j 5 R B r t b c 1 k k k k k k k k k k k k 9 k k k z k k k k z k 9 j k k k ",
"k j k k k k k k k k k k k k k k u c N k k k k c 7 R I 1 < L J w k k k k k 9 k k N k z k k k k b k k k k N k k k k k k k ",
"k k 1 < 1 1 k k b i 3 2 m N b & k k 9 i k k k k 9 z k k N k N z 9 c p u k 9 a U k k k k k k k k k k k k M z k N k k k k ",
"k k k 1 9 k k k ;.b N n n z k j j k k 8 k k k z 9 k k z k k k 9 : M E V t 4 8 c k k k k 9 k k k k k k k c k z z k k 9 k ",
"n n 9 k k k k n % % # l 8 8 9 m 1 < 9 k k k k k k k k k k 9 < < 4 k N z q 4 5 9 k k k k k k k k 1 k k k k k k k k k k k ",
"9 k k n k n k 9 P g x + + 8 r m < 9 i k k k 9 < k k k k k k k 9 5 o < p 5 q z u 8 k k k k k k k < < < k k k < 1 k k k k ",
"k k k k n n k k &.+.B k 0 l 9 9 < < k k k k < < k k k N k c k k k p T ] x k b p k k k k k k k k 9 < k k k k k 9 9 k k k ",
"k n k k 9 k n k %...A d 0 z z k k k k k k < 8 i 1 9 k k k k k M p T f.k.T u N p k k k k k k k k k k z N k N z k k k k k ",
"n 9 k 1 9 9 1 k h f 3 1 9 k N k k k k k 9 k k k k k z k k k k k x U p.d.a < N k k k k k k k k k k k k k z z k N k k k k ",
"n k 1 1 < 1 k n # l b z k k y a k z k k i 8 k k k k k k k j k k C X J T X 9 =.: k k k k k k k k < k k k k k k k k k k k ",
"9 9 k < k k k 8 z k k k z k k 9 k k k k k k k k k k k k k k k 9 k k k k k k k k G < q M 8 4 4 O U.v.{ : 5 5 N L k k k k ",
"V c u k k k c c N k k k k i k k k k k k k k k k k k 9 k k k k k k k k k k k k k z k k < y | { @ v.0.R 8 5 5 k n k k k k ",
"R p < k z k p U k k k 9 k k i 9 k k k k 9 k k k k k k k k k k k k k k k k k i k 6 H p   ! J.U.8.' I n 5 5 7 5 9 k k k k ",
"p j 9 q q 9 k p k z k k k k k k k k k 9 k k k k k k k k k k k k k k k k 9 k k k 6 K K : } !.~.j.< < i k r 9 r 5 k k k k ",
"9 M M 4 5 t M 1 k k k k k k k z k k k k k k k k k k k k k k k k k k j k k k k k 6 ` ' 4 C G.G.D - u i J a i i z k k k k ",
"5 z k < o k z q k 9 k k k k k k k k k k k k k k k k k k k k k k k 9 k k 9 k k k 0 T R 5 5 8.} : i i c a a a c n k k k k ",
"5 u T  .| H u 9 1 k k k k k k k k k k k k 9 k k k k k 9 j k k 9 k k k k k k k k c j 9 t 8 c k 5 k k k k n k k a k k k k ",
"k y 3.V.B.{ y M j k k k k z N k k k k k k k k k k k k k k k k k k k k k k k k k N : 4 M j < 0 z d 9 9 5 t r 1 u k 9 k k ",
"a ~ b.^.Q.7.y M N z k k k k k < k k k z k k k k k k k k 9 i k z 5 i ~ ( U C N X k k k k k u 9 k k k k 9 k 9 k 8 k k k k ",
"k I 0.B.z.~ , t k k k k k k k 1 k k k N k z k k k k k k k k k z N M t 7 5 4 r W k k k 9 k 9 j 1 N k z k k k k k k k k k ",
"5 c Q Q J p 9 e N k k k k k k < k k k k k k k z k z k k < k k N u 9 : 4 R H X r k k k k k i 9 k N z k z k k k k k k k k ",
"1 k k 1 < r q 5 z z 9 k k z k < k k z k k k k N k k k k k k k k i k p q.E.D.L 5 k z k k k k 9 k k k k k k k k k k k 9 k ",
"k i 9 9 r 9 9 n k k 9 k k k k k k k k k k k k k k k k z k k k k R N p l.!.U./ 4 z N k k k k 8 k k k k k k k k < k k 9 k ",
"R i < k k 1 k R k k k k k k k k k k k k k k k k k k k i k k z k i 1 : 5 ,.' , 8 z k c k k k k k k k k k 9 i 8 k k k k k ",
"N k i k k i k k k k 9 k k k z i 1 k 9 k k k k k k k 9 u k k k k k t w 5 : > 9 N k k k M k k k k z k k k k k < k k k k k ",
": r M n k N 9 1 k k i k k z k k j k k i k 8 k k k k 9 9 k k k i 5 a { ^ a k M k N k k k k k k k N k k k k k k k k k k k ",
"9 k 9 k 8 i 9 k < < k k i 8 < < t @ 7.q.J : M c v i d f c # # j k k k c k k a 3 k k k k k k k k < e Q ^ t k L n k k k k ",
"k z k k k k k k < < 9 k k k < < 4 J n.L.<.8 z p u 1 3 d k x c n i i i j j u i k k 9 k k k k k k u 5 a L 7 5 J 9 k k k k ",
"k z k k k i < 9 8 k k k k k k < 4 U h.x.Q . 5 x N i i c b c d s d i i u 8 8 k k k k k k k k k 9 N 4 k N 5 r E r k k k k ",
"1 < 1 u 9 8 9 u k k k k k k k 9 M y H K @ - 9 a N N k b l j f S D f i i j j x x k k k k k k k k Q 1 n t 5 9 C 9 k k k k ",
"< < 9 9 k k z k k k k k k k k k z < y U E V k < a 1 i j l k X.$.o.B k j x l k x k k k k k k k k a k q e a a 5 < j k k k ",
"8 k k N k N M k k k k k k k k k k c k M k k u k j k k k + a D @.B N i u j k j < k k k k k k k k i R 9 n 6.4.1 1 k k 9 k ",
"k k k k b k k u k k i k k 9 k k a M q 8 - o < N v j i d i u i f N i u u k k i < k k k k k k k k 5 [ > R A.N.k n k k k k ",
"1 k k k k < < - k k 9 k < k k 9 k M t q V V k z $ o , i N k i < i < < j c N d i k 9 k k k k k k 5 [   a T.K.k z k k k k ",
"k 1 k k 9 k k k k k k k k j k k k k k k 9 k k k k k k k k k k k k k k k k k k k k i *.e 4 N M > k k 1 i 8 i 9 k k k k k ",
"k j k 9 k k < k k k k k k k k k k k k k k k k k k k k k k k k k k k k k k k k k N u 9 5 y p k 5 k k k 9 < 1 k < k k k k ",
"9 k k u 8 i k < k k k k k k k k k k k k j k k k k 9 k k k k k k k k k k k k k k C 1 p ] 4.T k q k k k k k k k k k k k k ",
"k k k 9 k k k k 9 k k k k k k k k k k k k k k k k k k k k k k k 9 1 k k k k k k V 9 J v.F.4.j 9 N k z k k k k z k 9 k k "
};
