/* XPM */
static char *result[] = {
/* columns rows colors chars-per-pixel */
"60 60 233 2 ",
"   c #7EA601",
".  c #7EA707",
"X  c #7DB908",
"o  c #7CBC17",
"O  c #3C8C76",
"+  c #5C8F6F",
"@  c #67986C",
"#  c #6AA575",
"$  c #73B479",
"%  c #84A507",
"&  c #86AD04",
"*  c #89AE05",
"=  c #84AA0D",
"-  c #8BAE0B",
";  c #93AC08",
":  c #85B202",
">  c #8AB205",
",  c #86B904",
"<  c #8DB903",
"1  c #86B40B",
"2  c #8CB40A",
"3  c #83BA0C",
"4  c #8EB90B",
"5  c #91B505",
"6  c #92BB04",
"7  c #91B40C",
"8  c #9BB20C",
"9  c #91BA0C",
"0  c #85AC11",
"q  c #8AAE13",
"w  c #85A919",
"e  c #89AD1C",
"r  c #9AAC15",
"t  c #8EB412",
"y  c #87B813",
"u  c #8DB21B",
"i  c #91B513",
"p  c #9EB614",
"a  c #92BA13",
"s  c #92B61C",
"d  c #94B91B",
"f  c #A6B213",
"g  c #A5B617",
"h  c #8CAE23",
"j  c #8AAA27",
"k  c #90AC2F",
"l  c #8EB122",
"z  c #8EB12E",
"x  c #93B523",
"c  c #96B926",
"v  c #99B922",
"b  c #94B42C",
"n  c #9BB528",
"m  c #95B92D",
"M  c #9BBB2C",
"N  c #92AE36",
"B  c #95B634",
"V  c #98B63A",
"C  c #B6B72B",
"Z  c #A6B93B",
"A  c #D2B436",
"S  c #97C20B",
"D  c #8DC118",
"F  c #9FC33E",
"G  c #B4C92B",
"H  c #B6C33B",
"J  c #FDEF03",
"K  c #FCEF0A",
"L  c #F5F403",
"P  c #FBF304",
"I  c #FCF20B",
"U  c #E6EF19",
"Y  c #FAEF13",
"T  c #F2EE1C",
"R  c #F9EC1A",
"E  c #F5F212",
"W  c #FAF113",
"Q  c #F6F21C",
"!  c #FAF21B",
"~  c #D5D532",
"^  c #D7DB3C",
"/  c #DDDB3C",
"(  c #E7DD24",
")  c #E1DB34",
"_  c #DFE92E",
"`  c #EAE627",
"'  c #F7EB29",
"]  c #F4F224",
"[  c #F9F228",
"{  c #E8E737",
"}  c #F5EB38",
"|  c #F4F133",
" . c #9AAA4C",
".. c #89B44F",
"X. c #9CB442",
"o. c #9CBA44",
"O. c #9FB94D",
"+. c #99A956",
"@. c #9DB652",
"#. c #A1BB4A",
"$. c #AEB955",
"%. c #A6BC59",
"&. c #A29D73",
"*. c #8EB068",
"=. c #8DB872",
"-. c #A7BD67",
";. c #ABB06D",
":. c #AABC74",
">. c #B8BA73",
",. c #C8BE51",
"<. c #C8BF68",
"1. c #9FC049",
"2. c #9EC256",
"3. c #A3C44B",
"4. c #B8C548",
"5. c #A7C556",
"6. c #B9C85D",
"7. c #B7D55A",
"8. c #ABC365",
"9. c #B9C769",
"0. c #BAD866",
"q. c #A4CA76",
"w. c #B3C37A",
"e. c #B4C978",
"r. c #BAD67A",
"t. c #C9C94D",
"y. c #D6CA4B",
"u. c #C8D644",
"i. c #D8D546",
"p. c #CBC758",
"a. c #DAD959",
"s. c #E7DE50",
"d. c #D6E44D",
"f. c #E9E649",
"g. c #F2E542",
"h. c #E5E753",
"j. c #C8C868",
"k. c #CED965",
"l. c #CCC878",
"z. c #C9D878",
"x. c #D7D777",
"c. c #E3DE66",
"v. c #CEE27D",
"b. c #A476A8",
"n. c #3A9789",
"m. c #3BA1AD",
"M. c #3AA5B8",
"N. c #529B8B",
"B. c #53A497",
"V. c #66A686",
"C. c #3BADC3",
"Z. c #959691",
"A. c #A29B82",
"S. c #A89896",
"D. c #AEB983",
"F. c #B3BE83",
"G. c #ABAA98",
"H. c #B1BC99",
"J. c #9789A4",
"K. c #A386A4",
"L. c #A687AA",
"P. c #AA84AC",
"I. c #A48BAB",
"U. c #A595AA",
"Y. c #AA93AD",
"T. c #AB88B2",
"R. c #B38BB5",
"E. c #B586B9",
"W. c #B68BBA",
"Q. c #B98CBB",
"!. c #AD9AB0",
"~. c #B693B8",
"^. c #9CA1A2",
"/. c #ACACAA",
"(. c #ACB1AE",
"). c #B3B9A9",
"_. c #B6A8BA",
"`. c #AEB3B3",
"'. c #B1B6B5",
"]. c #BCB3B7",
"[. c #B4BAB6",
"{. c #B4B6BA",
"}. c #B5BABB",
"|. c #BBBDBD",
" X c #C1BBB6",
".X c #B9C88A",
"XX c #BFD98B",
"oX c #B9C895",
"OX c #BBC3A6",
"+X c #BAC1BD",
"@X c #C9C888",
"#X c #C5DA8D",
"$X c #D8D686",
"%X c #CCC994",
"&X c #C5CC9C",
"*X c #CCCA9A",
"=X c #D3CE9D",
"-X c #C3D599",
";X c #DBD495",
":X c #E1DB8D",
">X c #CDE595",
",X c #C9CAA6",
"<X c #D1CAA7",
"1X c #C8D4A8",
"2X c #C8C9B9",
"3X c #D5C8BB",
"4X c #C9D3B7",
"5X c #D3E6B4",
"6X c #BB8FC1",
"7X c #BDA9C1",
"8X c #BAB8C1",
"9X c #C5B9C8",
"0X c #CABDD0",
"qX c #BDC3C2",
"wX c #BECBC6",
"eX c #C2C5C5",
"rX c #C9C7C5",
"tX c #C4CAC6",
"yX c #C5CBCA",
"uX c #CACDCC",
"iX c #D6CBC9",
"pX c #CFD5C4",
"aX c #CDD3CF",
"sX c #D4D5CC",
"dX c #CBCDD2",
"fX c #D0C9D4",
"gX c #CED4D4",
"hX c #CFD5D8",
"jX c #D1D6D5",
"kX c #D3D4DA",
"lX c #D5D5DA",
"zX c #DFE3CC",
"xX c #E8F5CA",
/* pixels */
"2 2 2 2 2 2 2 2 2 2 > > 2 2 2 2 2 2 2 2 2 t 2 2 2 2 2 2 2 9 2 2 * > > 2 - 2 2 2 6 . N #X>X5.w 4 2 2 2 2 2 2 2 2 2 2 2 2 ",
"2 2 2 2 > 2 2 2 2 2 2 2 2 4 2 2 2 2 2 2 2 4 4 2 2 2 2 2 2 2 2 2 2 2 2 2 2 > 2 > 6 % o 1.3.B 0 > 2 2 2 2 2 2 2 2 2 2 2 2 ",
"2 2 2 2 2 2 2 2 2 2 2 2 2 2 2 2 2 2 2 2 2 7 2 2 > 2 2 2 2 2 2 2 2 > 2 2 2 1 > 2 < 5 = = = i 6 > 2 2 2 2 2 2 2 2 2 2 2 2 ",
"2 2 2 2 2 2 2 2 a 2 2 2 2 2 2 2 2 2 2 > 2 2 2 2 2 2 2 2 2 2 2 2 : 1 * 2 2 2 2 2 : 6 9 & < a S > 2 2 2 2 2 2 2 2 2 2 2 > ",
"2 2 2 2 2 > 2 2 2 2 2 2 2 2 2 2 2 2 2 2 2 2 2 2 2 2 2 2 2 2 2 2 & 1 & > 2 2 4 7 - 2 2 < < 2 1 t 2 2 2 2 2 2 2 2 2 2 2 2 ",
"2 2 2 > 2 2 2 2 2 2 4 2 > 1 2 2 2 2 2 2 2 2 2 2 2 2 2 4 2 2 2 2 * * > > 2 2 2 2 u q 2 2 2 * 2 4 2 2 2 > 2 2 2 2 2 2 2 2 ",
"2 2 2 2 2 2 2 2 2 2 2 2 2 > 2 4 4 2 2 2 2 2 2 2 2 2 2 2 2 2 2 2 2 > > 2 2 2 2 2 2 i 1 - 2 2 2 > 2 2 2 2 2 2 2 2 2 2 2 2 ",
"2 2 2 2 2 2 2 2 * 2 2 2 2 2 2 4 2 2 2 2 2 2 4 2 2 2 2 2 2 2 2 2 2 2 2 2 2 2 > 1 : 9 i 2 2 9 6 : 2 2 2 2 2 2 1 2 2 2 2 2 ",
"& < > : a D 7 &  .o.w & S S   s 2 > 2 2 2 2 2 2 <   z r.v.F   , - 2 3 3 > 2 4 3 * > 2 2 2 2 2 2 > 1 2 2 2 4 2 2 2 2 2 2 ",
"2 y q 0 = 0 i 4 oX>X6.u a 2   t 2 1 2 2 1 2 2 2 6 * h o.3.m x V N d 4 , - ; > : 2 2 2 2 2 2 2 2 2 2 2 > 2 2 t 2 2 2 2 2 ",
"y u 3.3.B e 2 : 4XxX>XV e t 2 1 * > * > > > 2 > 4 7 q z -.e..XoXG.O.t : 8 f 8 * 2 2 2 4 7 2 2 2 2 > 2 2 2 2 2 4 2 2 2 2 ",
"1 . 3.k.3.l 2   .X>Xr.z 0 a 2 4 2 2 2 2 2 > 2 2 1 m 8..X2XyXyXgXuXH.-.k p g f 8 2 2 4 2 2 2 > > 2 2 2 2 2 2 2 2 2 2 2 2 ",
"S   l F e & S , h c d * & > > : 2 2 2 2 2 2 2 2 V oX2XqXqXeXyXjXjXuX).+.g g g p 2 > 2 > > * 1 & 2 * 2 2 > 2 2 7 2 2 2 > ",
"9 & & t   & 6 < : & : 6 5 < < > 2 2 a 2 7 2 M 5.1XqX+XqXyXgXjXgXgXgXtXH.Z g g 5 > 1 - > 1 * & & 2 2 2 2 2 2 2 2 2 2 2 2 ",
"> 2 4 < 2 4 2 & 6 * 5 8 > 2 9 4 2 9 2 2 7 c e.4X+X[.yXjXgXgXjXgXaXhXkXuXD.n 7 : * > > 2 2 2 > > 2 2 2 2 2 2 2 2 2 2 2 2 ",
"= d 9 > > 4 u e t - u q = 2 a 4 2 2 2 2 i 8.4X+X`.eXgXjXgXhXhXhXhXgXhXyXH.O.y X 1 * > 2 2 2 2 2 1 > 2 2 2 2 2 2 2 2 2 2 ",
"2 2 2 2 2 2 2 2 > 2 2 a 2 2 2 > a i 1 - #.1XtX(.eXjXgXgXgXgXwXqXyXhXhXtXH.%.i 2 2 2 2 2 2 2 2 2 2 2 2 2 4 4 2 2 2 2 2 7 ",
"2 2 2 2 2 2 2 2 > 2 2 9 4 2 2 > 1 2 2 b &XjX'.'.gXgXgXgXyX}.`.`.`.qXgXaXpX8.s 2 2 2 2 > 2 2 2 2 2 2 2 2 2 7 2 2 2 2 2 2 ",
"2 2 2 2 2 > 2 2 > 2 2 2 2 2 2 2 1 2 a 8.pXqX(.eXjXgXhXgXwXqXwXyX'.'.uXjXjXw.i 2 2 2 2 2 2 2 2 2 2 2 > 2 2 7 2 * 2 4 2 2 ",
"2 > 2 2 2 2 2 2 2 2 2 4 i 2 2 2 - t x e.sX'.}.gXgXaXgXhXyXgXhXhXyX`.eXlXuX:.s 2 9 2 2 2 2 2 9 t 2 2 2 2 2 2 > 1 2 2 2 2 ",
"2 2 2 2 2 > 2 2 2 2 2 2 2 2 2 2 2 t 3.1XyX`.tXjXgXgXgXgXgXgXhXhXuX'.8XjXyXw.c 2 2 2 2 2 2 2 2 2 2 2 1 > 2 2 2 > * 1 1 > ",
"2 2 2 2 2 2 2 2 2 2 2 2 2 2 2 2 t a e.jX{.'.aXjXhXhXgXgXyXqXwXgXyX}.tXdX2XF.n i i t > * > * > 2 2 2 > > 2 2 2 2 * * * > ",
"2 2 2 2 2 2 2 2 2 2 2 2 2 2 2 2 2 c .XjX'.|.jXaXgXgXgXgX`.^.}.hXqX{.uXyX|.D.M c x u 1 * 2 2 2 2 2 2 2 2 2 9 2 2 > > 2 2 ",
"> 2 2 2 2 2 2 2 2 2 2 1 2 2 2 2 1 O.4XyX(.eXjXaXgXgXhXyX^.Z.qXgX}.}.gXgX2Xw.M N  .;.#.7 2 2 2 4 2 2 2 2 a 2 2 2 2 2 2 2 ",
"2 2 * * > * 2 7 a 7 ; ; 8 p y o x e.gXqX`.yXjXaXgXgXhXgX+X[.gXwX}.wXgXjX2X%.x X.+.&. .q 2 2 2 2 2 2 2 4 a 2 2 t 2 2 2 2 ",
"2 2 > - > > 2 2 y u t 7 7 2 1 2 b oXlX8X`.aXjXgXgXgXjXgXyXhXgX}.8XkXyX}./.+.u x n V x t 2 2 2 2 2 2 2 2 2 9 7 4 2 > 2 2 ",
"2 5 - 2 2 2 2 5 o o X 3 : : 2 8 l .XdX8X}.gXhXhXhXgXgXhXgXyX}.}.fXfX{.S.^.+.d i M n i 2 2 2 2 2 2 1 > 2 2 2 2 2 2 2 2 2 ",
"2 2 5 7 5 7 2 2 r r 1 : X < 5 8 e -.yX}.[.dXgXgXgXwXwXyXqX{.|.dXlXlX8XS.;.V V +. .N x i 2 2 2 2 * * * > 2 2 > > 2 2 2 2 ",
"2 2 2 5 2 7 2 2 A A r ; , 3 > 5 1 %.2X[.).gXgXgXgXwXqX8X8XrX8X_. X0X9XD.V $.S.U.S.&.+.b i 2 2 2 * 2 2 2 2 2 2 2 2 2 2 2 ",
"5 7 2 2 - 5 7 2 A C ; ; 4 4 4 2 2 o.1X[.`.gXgXhXdXgXdXfXfX_.U.I.Y.Y.~.G.&.S.~.Q.~.R.S.+.h 2 2 2 2 2 2 4 2 4 2 2 2 2 2 2 ",
"2 - 2 * > * 2 2 r r * * > 4 2 t 4 m oX+X(.qXkXkXkXlXfX0X_.K.K.R.P.K.R.~.P.E.Q.Q.E.6X6XS. .7 2 2 2 2 7 7 4 9 a 2 2 > 2 2 ",
"2 5 > * * * 2 7 X 3 4 4 2 2 = q 9 d 8.tX{.(.dXkXfX0X XY.K.K.R.Q.Q.Q.Q.Q.Q.Q.Q.Q.E.6XE.E.&.q 2 2 1 > 1 2 2 2 2 2 2 2 2 2 ",
"2 > > * 1 2 2 > 2 2 2 2 2 2 2 2 2 2 o.,XyX{.8X8X_.Y.J.T.R.~.Q.Q.Q.Q.b.b.b.Q.Q.Q.Q.W.W.6XA.e , X 1Xq.M : : 5 s h 5 2 2 2 ",
"d t - 1 2 2 t a 9 2 4 2 2 2 > 2 2 s @.OXkXdX8XU.J.Y.R.W.Q.Q.Q.Q.E.b.b.b.b.P.Q.Q.~.R.R.T.Z.+.B   e.%.x > > < 5 - 2 2 2 2 ",
"x q * 2 4 2 q s 2 2 t 2 2 2 2 2 t %.,XpXdX9XU.J.J.Y.T.R.E.E.E.E.6XW.6Xb.b.T.P.P.K.K.I.J./.,X1X#.b x 7 * < 5 5 > 2 1 2 2 ",
"t 1 > < 6 > 1 0 2 2 2 2 2 2 2 2 s :.2XiXiXiX8X_.7X!.!.Y.I.L.L.P.L.T.Y.R.I.Y.Y.Y.!.7X9X9XiXzXxX6.& - - 5 > > < < 2 2 2 2 ",
"* 4 9 , > 6 9 > 2 2 2 2 2 2 2 2 i X.F.,X<X<X3X3X2X2X2X2X X X X]._.{.].|. X2XrXiXiXfXiX,X<X-X#Xg & & - u q q 2 5 2 2 2 2 ",
"> 9 2 1 & > 9 > 2 2 2 2 2 2 2 2 2 v 6.l.k.p.j.j.l.@X@X@X%X%X=X=X*X*X*X*X*X*X%X%X@X<.j.j.l.9.Z & - - t q u q t i 2 2 2 2 ",
"> * l V V h : 4 2 1 2 2 2 2 2 2 2 v 3.t./ ) ) ) i.i.t.t.y.p.p.p.j.j.l.9.j.$.,.y.y.i._ { f.u.d : - 7 2 2 5 7 2 q 2 2 2 2 ",
"< = o.r.r.V . 4 2 > 2 2 7 2 4 2 2 p Z ~ ~ ( ( ` | } } g.s.s.s.h.k.z.XXr.z.c.s.g.} ' ] ] { G 2 6 5 > > < 5 5 > * 2 2 2 2 ",
"q j e.xX5X+.% 6 7 2 2 2 2 2 2 1 2 d H i.~ ( R R W W [ [ ) ^ h.h.7.=.V.$ *.6.f.[ ' R R T _ G = 1 2 2 2 2 2 2 > > 2 2 2 2 ",
"1 l 5.r.9.k = 6 a 2 2 2 2 2 > & 2 v H u.) ( ' K P L I ] H ..q.q.# N.n.n.O @ 4.U Y K Y T { H 2 : 2 4 2 2 2 2 2 2 2 2 2 > ",
"> i x b h 1 > 6 4 2 2 2 2 2 2 * - n $.~ ) ' R K P L L ] 7.# N.N.m.M.C.C.M.O .._ W I W T ) H i > 9 t 2 4 2 2 2 2 2 2 2 2 ",
"& 7 2 1 * > 5 < 9 2 2 2 2 2 2 > 5 d t.i.) ( R J P P I ] p.# + # B.m.M.m.B.# F U I I W ' ) H s 2 2 4 7 2 2 2 2 2 2 2 2 2 ",
"7 > > > 5 > > 7 2 2 2 2 2 2 2 2 2 v 4.a.) ( R P P J J ! u...-.9.=.$ B.V.=.6.^ E L K Y ` i.t.p > 2 2 2 2 2 2 2 > 2 2 2 > ",
"d - * 7 2 * 2 d 2 2 2 > 2 2 2 2 7 M 6.a.f.` Q P P J K Y ` d.h.h.d.7.0.0.a.g.[ W K I R ( a.$.x 2 2 2 2 2 2 > * > 2 2 2 2 ",
"7 2 - 2 - - 2 7 2 2 2 2 2 4 2 2 i %.@Xx.a.f.| Q Q ! W W Q ] ] ] ] [ | | } ' ' [ [ [ ` / ,.$.#.s t 2 2 2 2 1 1 > 2 2 2 2 ",
": 5 9 7 t 7 5 : 2 2 > 2 2 2 2 2 t $.%X;X$Xk.a.h.f.{ | [ Q ] Q Q W W [ [ } } } g.{ i.t.<.>.,Xw.x a 7 2 2 2 2 2 2 2 2 2 2 ",
"2 2 > 2 * 2 1 > & & 1 2 > > & & 6 j :.OX,X<X=X$Xx.a.s.g.g.{ | { } { ) f.i.i.i.p.p.<.%X,X,X,X8.x - 6 b N 6 5 j 9 2 2 2 2 ",
"2 2 2 2 2 2 2 2 * * > 2 2 2 * & : e r.#Xe..X*X,X=X;X;X:X$Xx.x.x.x.x.x.z.l.z.l.@X.X%X&XoX.XO.x t 2 > q h < > x 5 2 2 2 2 ",
"2 2 2 2 2 > * > * > 2 2 2 2 > 1 : u 8.0.m j X.%.w.@X*X1X1X1X1X4X4X4X1X&XoXXX.Xe.8.%.#.V b s 2 2 u : 5 i < 5 s 5 2 2 2 2 ",
"> * > > * > 1 * 2 2 2 2 2 2 2 2 6 = h l = & > t M M #.%.2.8.:.>.>.>.-.#.o.V B m d t 2 2 2 2 2 2 s > 7 6 & > i < > 1 2 2 ",
"* * > 2 2 2 2 2 2 2 2 2 2 2 2 2 9 & = u u a 7 * 2 - 2 y y x n ~ C Z v t y y 1 1 2 2 2 > 2 2 2 2 q - 6 5 7 q 2 & 2 2 2 2 ",
"* 2 1 4 2 9 4 9 2 2 2 2 2 2 2 2 - t 4 9 4 1 1 2 1 1 - 2 X - g A p i - > 3 2 2 1 2 2 2 2 2 2 2 7 - s < 7 #.o.& > 2 2 2 2 ",
"> 2 2 2 4 2 2 2 2 2 > 2 2 2 2 2 1 a 6 :   & * 9 D 3 2 ; - = - r i 2 * 1 1 2 - & 2 2 2 2 2 2 2 > 5 M & s XXr.7 5 2 2 2 2 ",
"1 2 2 2 2 * & % 2 2 2 > 1 > > 2 t 9 S < a d 2 2 X   % ; i 4 1 * 2 * & = i i 7 - 2 2 2 2 2 > 2 > > M   e 5X-X7 2 2 2 > 2 ",
"> > 2 2 2 2 > 2 2 > 2 2 2 2 2 2 2 2 2 2 2 2 2 2 2 2 2 > 2 2 2 2 1 2 2 2 2 2 2 2 - - S S : a i > > 2 > > * 1 > * 2 2 2 2 ",
"2 2 * 2 2 > 2 2 2 2 2 2 2 2 2 2 2 2 2 2 2 2 2 2 2 2 2 2 2 2 2 2 2 > 2 2 2 2 2 4 i & < : & 0 2 > 4 2 2 > * > > > 2 2 2 2 ",
"* 2 2 2 > 2 > 2 2 2 2 2 2 2 > 1 2 2 2 2 2 2 2 2 2 2 2 2 > 2 2 2 - 2 2 2 2 2 2 2 p * = B X.z 2 6 4 2 2 2 2 2 2 2 2 2 2 2 ",
"2 2 > 1 = 2 2 2 2 2 2 2 2 2 2 2 2 2 2 2 2 2 > 2 2 2 2 2 2 2 2 2 2 > 2 2 2 2 2 2 D > q e.#Xo.2 > a 2 2 2 2 2 2 2 2 2 2 2 "
};
