/* XPM */
static char *result[] = {
/* columns rows colors chars-per-pixel */
"60 60 222 2 ",
"   c #010F3B",
".  c #17293C",
"X  c #3A342A",
"o  c #3D382A",
"O  c #272F3B",
"+  c #363634",
"@  c #35373C",
"#  c #3D3D3C",
"$  c #413F3C",
"%  c #324736",
"&  c #687E17",
"*  c #43413C",
"=  c #48493E",
"-  c #544C3D",
";  c #4D5C36",
":  c #49543C",
">  c #525230",
",  c #6E5A27",
"<  c #645735",
"1  c #58692D",
"2  c #586B33",
"3  c #657926",
"4  c #7A683B",
"5  c #637738",
"6  c #020847",
"7  c #001C44",
"8  c #000152",
"9  c #000B54",
"0  c #001252",
"q  c #001A54",
"w  c #032143",
"e  c #17264A",
"r  c #182352",
"t  c #262C48",
"y  c #2E3246",
"u  c #323543",
"i  c #363847",
"p  c #3B3C42",
"a  c #34354E",
"s  c #38374F",
"d  c #3C3A4E",
"f  c #232853",
"g  c #2C2D52",
"h  c #2E3054",
"j  c #2E3158",
"k  c #313254",
"l  c #3A3753",
"z  c #323359",
"x  c #433D45",
"c  c #413D4E",
"v  c #403C54",
"b  c #3D4345",
"n  c #454141",
"m  c #4A4442",
"M  c #484A49",
"N  c #514741",
"B  c #524A41",
"V  c #524F50",
"C  c #69574A",
"Z  c #6A664C",
"A  c #826A2B",
"S  c #987B26",
"D  c #877130",
"F  c #897235",
"G  c #977C34",
"H  c #856E44",
"J  c #867649",
"K  c #917A43",
"L  c #7B9F0E",
"P  c #6C841D",
"I  c #6C891C",
"U  c #779A18",
"Y  c #7EA601",
"T  c #7EA806",
"R  c #7CB709",
"E  c #7EA114",
"W  c #7CBC17",
"Q  c #6E8423",
"!  c #75872C",
"~  c #869F0F",
"^  c #A7861C",
"/  c #AE8D1E",
"(  c #B08F1F",
")  c #B5931F",
"_  c #BA961E",
"`  c #BB981F",
"'  c #86AD04",
"]  c #89AE05",
"[  c #86A508",
"{  c #85AB0C",
"}  c #8BAE0B",
"|  c #97AA09",
" . c #92AE0B",
".. c #84B103",
"X. c #8AB205",
"o. c #8EB903",
"O. c #85B30A",
"+. c #8CB40A",
"@. c #83BA0C",
"#. c #8FB90A",
"$. c #91B704",
"%. c #92BB04",
"&. c #91B40D",
"*. c #9AB10C",
"=. c #92BA0C",
"-. c #81A512",
";. c #85AB11",
":. c #8AAE13",
">. c #86AA1C",
",. c #8AAD1D",
"<. c #9CA415",
"1. c #9BAC16",
"2. c #8DB412",
"3. c #88B913",
"4. c #8DB21B",
"5. c #93B512",
"6. c #9CB413",
"7. c #92BA12",
"8. c #92B51C",
"9. c #94B91A",
"0. c #9EB818",
"q. c #A1A80C",
"w. c #A2AA16",
"e. c #AAAC11",
"r. c #A4AB1A",
"t. c #A5B718",
"y. c #ADB61A",
"u. c #B8BF1A",
"i. c #8F9724",
"p. c #9C8238",
"a. c #A78826",
"s. c #AE8C22",
"d. c #B08F21",
"f. c #AE9122",
"g. c #B49321",
"h. c #BA9622",
"j. c #BE9922",
"k. c #B99529",
"l. c #A88A34",
"z. c #BA9B32",
"x. c #8CAE23",
"c. c #8BAB29",
"v. c #8EB122",
"b. c #8EB12E",
"n. c #92B623",
"m. c #96B82A",
"M. c #8FAD36",
"N. c #95B639",
"B. c #B9AD28",
"V. c #BEB82A",
"C. c #AFB137",
"Z. c #C39D1F",
"A. c #DBB70B",
"S. c #CCA416",
"D. c #CCA41A",
"F. c #CBA61D",
"G. c #D0A710",
"H. c #D3AA16",
"J. c #D9AE14",
"K. c #D4AB1B",
"L. c #DAAF1A",
"P. c #DDB215",
"I. c #D7B21B",
"U. c #DDB21A",
"Y. c #ECBD05",
"T. c #ECBD09",
"R. c #E6BA15",
"E. c #EABD14",
"W. c #E0B519",
"Q. c #E5B919",
"!. c #C39D22",
"~. c #C59E29",
"^. c #CBA323",
"/. c #C8A227",
"(. c #D2A926",
"). c #D5AB24",
"_. c #CBBB2B",
"`. c #D7B026",
"'. c #C2A133",
"]. c #D2B436",
"[. c #E3BB29",
"{. c #97C20B",
"}. c #88C118",
"|. c #99C119",
" X c #B4C416",
".X c #9FC33E",
"XX c #EFC005",
"oX c #EEC10B",
"OX c #F2C205",
"+X c #FCCC05",
"@X c #F3C40A",
"#X c #F7C908",
"$X c #FACA09",
"%X c #FFD201",
"&X c #FFD80D",
"*X c #EBC012",
"=X c #F8CB15",
"-X c #FFDC10",
";X c #ECC222",
":X c #94AE4F",
">X c #9BBA44",
",X c #9DBD4A",
"<X c #96B053",
"1X c #A2BB4E",
"2X c #8F977D",
"3X c #C6BE6E",
"4X c #A3C44B",
"5X c #A7C656",
"6X c #B7CB5F",
"7X c #A9C566",
"8X c #BBDC69",
"9X c #B3CB77",
"0X c #BBD778",
"qX c #C3E27D",
"wX c #B8CB8D",
"eX c #C2DB8B",
"rX c #D0D593",
"tX c #CCE982",
"yX c #CDE595",
"uX c #CBD8BC",
"iX c #D3E6B4",
"pX c #E8FACA",
/* pixels */
"+.+.+.X.+.+.+.+.+.+.X.X.+.7.+.+.#.+.+.+.+.=.+.O.+.+.+.+.+.+.+.+.] X.+.+.} +.+.+.=.T M.eXyX5Xx.2.+.+.X.+.+.+.+.+.+.+.+.+.",
"+.+.+.+.+.+.+.+.+.+.X.+.+.+.+.+.+.+.+.+.+.#.+.+.+.+.&.+.+.#.+.+.+.+.+.X.+.X.X.+.%.' >.>X4Xb.O.+.+.+.+.+.+.+.+.+.+.X.+.+.",
"+.+.+.+.X.+.+.+.+.+.+.+.+.+.+.X.+.+.+.X.+.+.+.+.+.+.+.+.+.+.+.+.+.+.X.+.+.X.+.+.o.X.O.{ { &.&.o.+.+.+.+.+.X.+.+.+.+.+.+.",
"+.+.+.+.+.+.+.+.7.+.+.+.+.+.+.+.+.+.+.+.+.+.+.+.+.+.+.+.+.+.+.+...+.' +.O.+.+.+.X.%.=.X.X.{.7.+.+.+.+.+.+.+.+.+.+.+.+.+.",
"+.+.+.+.+.+.+.+.+.+.+.+.+.+.+.O.+.+.+.X.+.+.+.+.+.+.+.+.+.#.+.+.] ' X.X.+.+.7.+.{ +.&.$.o.+.+.O.+.+.+.+.+.+.+.+.+.+.+.+.",
"+.+.+.+.+.+.+.+.+.+.=.+.X.+.+.+.+.+.+.+.+.+.+.+.+.+.+.#.+.+.+.+.' ' X.+.+.+.+.+.4.O.O.+.+...+.2.+.+.+.+.+.+.+.+.+.X.+.+.",
"X.+.+.+.+.X.+.+.+.+.+.+.+.] +.#.#.+.+.+.+.2.+.+.+.+.+.+.+.+.+.+.+.+.X.+.+.+.+.+.2.+.+.} +.&.$.o.X.#.+.+.+.+.+.+.+.+.+.+.",
"+.+.+.+.+.+.+.+.X.+.+.+.+.+.+.7.+.+.+.+.+.#.#.+.+.+.+.+.2.+.} L +.O.+.+.X.+.+...X.=.7.O.O.7.%...+.+.+.+.+.X.+.+.+.+.+.+.",
"..o.X...7.|.#.' :X,X>.' {.=.Y 9.+.+.+.+.+.+.+.+.o.Y b.0XqXN.; h -.+.@.@.X.&.#.@.' +.+.+.+.+.+.+.O.+.+.+.+.+.+.+.+.+.+.+.",
"#.2.4.;.T ;.2.#.wXyX6X,.7.#.T O.+.+...+.X.+.+.+.{.' x.,X4X5 z k b 2.@...] &.o...+.+.+.+.+.+.+.+.+.X.+.+.+.+.+.#.+.+.+.+.",
"+.4..X5XN.>.#...uXpXyXN.,.2.+.O.] +.X.+...+.+.X.o.2.;.-.3 h h a k : +.] | *.| ] +.+.#.+.+.+.+.+.+.+.+.+.+.+.+.+.+.+.+.+.",
"..{ 4X8X4Xv.#.Y wXyX0Xc.;.7.#.#.+.+.X.} +.+.+.+.' 2.+.I z g a h a z ; $.t.y.y.*.+.+.+.+.+.+.X.X.X.X.+.+.+.=.+.+.+.+.+.+.",
"{.[ v..X>.' {...,.m.9.] ' X...X.+.+.+.+.+.=.+.+.{ +.L k h k g e g k k 1 6.y.y.6.+.+.+.+.+.] ..X.+.+.+.+.+.+.+.#.+.+.+.+.",
"{.Y ' 2.Y ' %.o.] ] ] o.o.o.X.X.+.+.#.+.+.+.2.+.7.-.a g s q < l.l f k k 3 t.6. .X.X.+...X...} ' X.O.+.+.+.+.+.+.+.+.+.+.",
"..+.#.o.+.#.+.' $.] $.*.+.+.=.#.+.+.+.7.+.&.2.+.O.n k a r x ^ D.l.q g a a Q +.R ' +.] +.+.+.X.' +.X.+.+.+.+.+.+.+.+.+.+.",
";.9.7.X.o.2.4.:. . .4.4.{ +.7.o.+.+.+.+.+.+.+.O.: j s k x ^ j.j.F.G r d k a U @.{ ..X.+.+.+.+.+.+.+.+.+.+.+.+.+.+.+.+.+.",
"+.+.+.X.+.+.X.+.X.+.+.+.+.+.+...7.7.O.} +.7.2.2 j k g 0 S ) s.h.j.Z.H 8 d k s E #.O.+.+.+.+.+.+.+.+.+.+.+.7.+.+.+.+.+.#.",
"+.+.+.+.+.+.+.+.+.+.+.7.7.+.+.X.O.+.+.} ' +.2 k a g e a.S.D.Z.K.).K.U.K 8 c g b } +.} +.+.+.+.+.+.+.+.+.#.+.+.+.+.+.+.+.",
"+.+.+.+.+.+.+.+.X.+.+.#.+.+.+.X.] 2.2.O.{ 3 k a k 9 s.@X*XT.T.$X$X+X+X=XJ 8 v j M +.+.+.+.+.+.+.+.+.+.+.+.+.+.X.+.#.+.+.",
"+.+.+.+.+.+.+.+.+.+.+.#.&.+.+.O.+.2.2.+.P k h s 8 S Y.*X*XT.Y.@X%X=X$X+X=XZ 8 c h ; +.+.+.+.7.#.+.+.X.+.+.+.+.X.+.+.+.+.",
"+.+.+.X.+.+.+.+.+.+.+.+.+.+.+.+.O.2.#.U g g s 8 D Y.E.@Xk.4 E.%XH.< Q.+X+X;XV 8 d h 1 +.+.+.+.+.+.+...X.+.+.+.X.' ' +.+.",
"+.+.+.+.+.+.+.+.+.+.+.+.+.+.+.+.2.7.-.a h l q 4 Y.@XoXT.A 6 l.).< 6 (.%X$X+X[.M r s h 3 X.{ X.+.+.+.X.+.+.+.+.+.' X.' +.",
"+.+.+.+.+.X.+.+.+.+.+.+.+.+.+.2.} 2.b h a r N S.W.J.J.R.A O O 7 m i ~.*XE.E.Y.'.q k k h P X.} +.+.+.+.+.7.+.+.+.X.X.+.+.",
"+.+.+.+.+.+.+.+.+.+.+.+.+.+.+.#.{ M h s f p ^ h.( ( d.d.S O = = n B k.!.j.!.!.Z.p.0 a k g U +.2.+.+.+.+.+.#.+.+.+.+.+.+.",
"+.X.] ] ] ] +.&.7.&. .| *.5.3.W ; k a f y S _ g.) ) ( ` S   = = p B !.Z.!.Z.!.!.^.F 9 s h a E +.O.&.+.+.7.+.+.7.+.+.+.+.",
"+.+.X.X.X.+.X.&.}.}.2.&.$.&.+.1 z a k t S _ ) ) ) ) ) _ ( < # $ n G !.~.!.!.!.!.!.^.H 9 d j b O.&.O.+.+.&.#.+.+.+.+.+.+.",
"+.&.o.+.+.X.&.+.W E @.@.O.X.3 k h l 9 A ) ( s.( ( ( ( ( ( d.a.a.k.!.j.!.!.!.!.!.!.!.!.C 8 c j = +.] +.+.+.+.+.+.+.+.+.+.",
"+.+.+.&.&.&.&.X.1.1.3.T R I k g s 9 S G.G.Z.S.S.S.S.S.S.S.S.D.K.I.L.L.L.L.L.L.L.L.L.P.`.Z 8 d h ; ' ' +.+.X.X.+.X.+.+.+.",
"X.&.&.&.&.&.+.+.]._.<.+.U g k l 8 F Y.@XXXXXXXXXXXXXXXXXT.Y.OX+X+X$X+X+X+X+X+X+X+X+X$X+X;XV 8 l j 1 +.O.+.+.+.+.+.+.+.+.",
"&.+.+.+.o.+.&.+.].B.| ~ a g l q 4 Y.Y.T.T.T.T.T.T.T.T.XXOX@XQ.Q.=X%X$X#X$X$X+X@X$X$X$X$X%X[.V f k j 3 #.+.7.+.+.+.+.+.+.",
"X.&.X.X.X.X.X.&.<.1.-.b k a f 2 R.@XT.T.T.T.T.T.T.T.XXXX^.F - - 4 z.=X$X$X+X$X+X$X+X$X$X#X&XB.6 v h k Q =.2.#.+.X.+.+.+.",
"&.X.X.] ] ] X.&.R @.2 z a l % +.T.+XY.Y.XXXXoXXXXXXXOX/.e . @ # @ 6 p.$X+X+X+X+X+X+X+X+X+X-X XP v a h h } +.+.+.+.+.+.+.",
"o.o.] { +.+.+.X.+.+.;.b z : +.&.K.U.I.J.J.J.J.J.J.J.D.+ @ * $ * N B 6 z.E.R.R.R.R.R.R.Q.R.=Xy.' 2Xj h P X.o.5.c.o.+.+.+.",
"9.2.' +.2.O.2.7.&.+.+.E M O.O. .f.g.g.s.g.s.d.g./ g., . * # $ * n n x $ k.Z.` ` h.!.~.~.!.~.C.[ 9XZ 5 ..X.X.&.&.+.+.+.+.",
"v.:.' +.#.+.:.4.+.#.+.&.+.+.+.&.k.j.) ) ) ) ) g._ g.> + $ $ $ * n n m x l.D.!.!.Z.~.~.Z.Z.).3X<Xm.v.+.X.o.$.o.X.+.+.+.+.",
":.} o.%.o.+.O.:.+.+.+.O.+.+.+. .k.` ) ) ) ) g.) _ s.X + $ $ $ x n n N O p.^.!.!.!.~.!.Z.Z.).rX6X' ' }  .X.X.X.$.+.+.+.+.",
"..=.=.X.o.o.=.X.+.+.+.+.+.+.+.5.f.) f.f./ ) ) f.d.a.X @ $ $ $ n n n m u G Z.j.j.j.j.j.j.!.(.3Xr.' ' :.4.:.:.&.X.+.+.+.+.",
"X.=.#.{ Y +.#.o.+.+.X.+.+.+.+.5.F.H.H.H.D.S.S.D.H.Z.X + $ $ $ $ m n - t l.R.U.U.`.U.U.U.P.Q.V.[ ] } 2.:.:.:.2.5.+.+.+.+.",
"X.O.v.N.N.,...o.X.+.+.+.+.&.+.5.*XOXXXXXOXOXXXT.Y.R.$ + $ $ $ x m n B 7 '.%X$X+X%X+X+X+X+X&XV.X. .+.+.$.&.&.+.:.+.X.+.+.",
"o.{ >X0X0X>XT 7.+.+.+.+.#.&.&.5.R.OXT.T.T.T.T.T.Y.R.$ X $ $ $ $ n n N 7 ~.%X#X$X$X$X#X#X#X&Xu.{.&.X.X.$.$.%.X.' +.+.+.+.",
":.c.wXpXiX<X[ %.+.+.+.+.+.+.+.&.R.OXXXT.T.T.T.T.Y.A.o @ * # # n n n = w z.%X#X$X$X$X$X$X$X-Xu.+.+.+.+.+.+.+.X.+.+.+.+.+.",
"+.x.,X0X7XM.{ %.7.#.+.+.+.+.X.&.*XOXXXXXXXoX@XT.OXR.$ @ * $ # * m n N 7 '.%X$X+X+X+X+X+X$X-Xu.+.=.+.+.+.+.+.+.+.O.+.+.+.",
"] 5.n.m.v.} X.%.+.+.+.+.+.+.+. .F.P.H.H.H.H.H.H.J.D.o @ $ $ $ n n n m t l.E.U.W.W.W.W.W.R.[.y.] =.&.&.+.+.+.+.+.X.+.+.+.",
"X.&.&.] ' $.$.X.=.+.+.+.+.+.+.} f.) f.f.f./ f./ ) a.X @ $ $ $ * = x m u G D.j.j.!.j.j.j.Z./.r.+.+.7.+.+.+.+.+.+.+.+.+.+.",
"+.} X.o.$.o.+.&.+.+.+.X.+.+.+.} g.h.) ) ) ) ) g._ / X @ * # # * x x - y G S.Z.!.!.!.!.!.!.(.r.+.+.+.+.+.+.+...+.+.+.+.+.",
"9.} ' +.+.] } 9.+.+.+.+.+.=.+.&.g.g.) ) ) ) ) g.) / X # * * $ * - * m @ p.D.Z.Z.Z.Z.!.!.Z.^.r.+.+.+.+.+.+.X.+.X.+.+.+.+.",
"&.&.} } } } +.+.+.+.+.+.+.&.+. .h.!.j./.!.!.!.!.!.g.X p m M n m N V B i l.`.(.(.).).^.(.^.[.r.O.+.+.+.+.+.X.+.X.+.+.+.+.",
"X.$.=.&.2.&.o.X.+.+.+.+.+.+.&.O.<.<.<.<.<.<.<.<.w.<.& P Q P Q P & 3 ! 5 i.w.r.w.r.r.w.r.r.r.1.+.7.#.+.+.+.+.+.+.+.+.X.+.",
"X.+.X.+...+.+.+.' ..+.+.+.X.' ' %.E :X7XE T {.O.3.+.| 6.+.O.O.O.5.2.2.2.+.+.}  .X.+.+.+.+.+.+.+.' %.n.M.%.&.c.%.+.+.+.+.",
"+.+.+.+.+.+.] +.' ' X.+.+.+.X.' ..4.0XtX.Xo.#.:.O.' [  .2.3.2.6.} } } O.O.O.} } +.+.+.+.+.+.+.+.} o.2.c.$.X.x.$.+.+.X.+.",
"+.+.+.+.+.+.X...X.X.+.+.+.+.X.' X.4.6X8Xn.Y X.2.5. .+.2.3.+. .q.|  .} ' { O.+.+.+.+.+.+.+.+.+.+.8.X.+.5.X.$.n.$.+.+.+.+.",
"X.X.X.] ' X.] +.+.+.+.+.+.+.+.+.%.{ E b.T ' X.O.5.7.&.3.@.O.q.e.t.5.} } O.@.2.+.+.+.+.+.+.+.X.+.8.X.$.%.X.X.7.$.+.+.+.+.",
"' ' X.+.+.+.+.+.+.+.+.+.+.+.+.+.#.{ ;.4.9.7.#.' +.} +.+.O.+.y._.t.0.&.O.@.@.+.@.+.X.+.+.+.+.+.+.:.} $.%.} :.X.X.+.+.+.+.",
"X.X.+.7.+.7.7.#.+.+.+.+.+.+.+.+.+.+.=.&.2.O.+.+.O.+.} +.O.O.t.V.0.5. .+.+.+.+.{ +.+.+.+.+.+.+.+.+.8.o.=.1X>X] X.+.+.+.X.",
"+.+.+.+.+.+.+.X.+.+.+.+.X.+.+.+.} 7.%...' ' ' 7.}.@.] } +.O.} 6.5.} ' ' O.+.} ' +.+.+.+.X.+.+.+.X.m.] 8.wX9X&.$.+.+.+.+.",
"..+.+.+.X.' ' ' +.+.] +...+.+.X.2.=.%.o.7.9.O.o.R Y [ | 7.2.+.] +.' { O.2.7. . .+.+.+.+.+.+.+.o.$.m.Y ,.iXyX&.+.+.+.+.+.",
"+.+.] +.+.X.+.X.+.+.+.+.+.+.+.+.+.+.+.+.+.+.X.+.+.+.+.+.#.X.+.+.+.+.+.+.+.+.+.+.} } {.%...7.7.X.&.o.+.] ' +.' X.+.+.+.+.",
"+.+.+.+.+.+.+.O.+.+.+.+.+.+.+.+.+.+.+.+.+.+.+.+.+.+.+.+.O.+.+.+.+.} +.+.+.+.+.#.7.' X.X.' :.} X.+.+.+.X.X.X.X.+.+.+.+.+.",
"} +.X.+.+.' +.+.+.+.+.+.+.+.+.X.+.X.+.+.+.+.+.+.+.+.+.+.+.+.+.+.+.+.+.+.+.+.+.+.9.X.} N.>Xc.+.%.+.#.+.+.+.+.+.+.X.+.+.+.",
"X.X.O.+.+.+.X.+.+.+.+.+.+.+.+.+.+.+.+.+.+.+.+.+.+.+.X.+.+.+.+.+.X.+.X.+.+.+.+.+.9.X.:.9XeX>X] o.7.+.+.+.+.+.+.+.+.+.+.+."
};
