/* XPM */
static char *result[] = {
/* columns rows colors chars-per-pixel */
"60 60 253 2 ",
"   c #090403",
".  c #0D0C0B",
"X  c #150B08",
"o  c #0F100E",
"O  c #12120C",
"+  c #1B130E",
"@  c #1B1412",
"#  c #191814",
"$  c #24120F",
"%  c #2D100B",
"&  c #241411",
"*  c #261917",
"=  c #2B1A15",
"-  c #2B1D1A",
";  c #321E19",
":  c #1E201D",
">  c #2D221D",
",  c #28281A",
"<  c #342114",
"1  c #32221C",
"2  c #322E1E",
"3  c #343C19",
"4  c #2A2724",
"5  c #322422",
"6  c #372C28",
"7  c #2E3721",
"8  c #373528",
"9  c #3D3C39",
"0  c #522A22",
"q  c #483126",
"w  c #493630",
"e  c #3D481B",
"r  c #3B4423",
"t  c #495516",
"y  c #556615",
"u  c #5D711C",
"i  c #6A7B1B",
"p  c #464829",
"a  c #4C5428",
"s  c #58512D",
"d  c #48453B",
"f  c #4B5237",
"g  c #654836",
"h  c #754836",
"j  c #5C6A28",
"k  c #5E7624",
"l  c #647725",
"z  c #6A7732",
"x  c #545148",
"c  c #5A5556",
"v  c #68504A",
"b  c #68574D",
"n  c #755342",
"m  c #655552",
"M  c #6E6954",
"N  c #6E6C6A",
"B  c #864D36",
"V  c #A4593D",
"C  c #89713B",
"Z  c #885D48",
"A  c #8C774B",
"S  c #94714E",
"D  c #8C6955",
"F  c #996C55",
"G  c #A37C58",
"H  c #B27752",
"J  c #846B65",
"K  c #9D7A65",
"L  c #887A71",
"P  c #A67B63",
"I  c #C47A58",
"U  c #759413",
"Y  c #799518",
"T  c #7EA602",
"R  c #7EA706",
"E  c #7DB908",
"W  c #7EAE15",
"Q  c #6E8427",
"!  c #758C26",
"~  c #7D9828",
"^  c #7C8F3B",
"/  c #7A8454",
"(  c #85AD04",
")  c #89AE05",
"_  c #83A509",
"`  c #85AB0D",
"'  c #8AAE0C",
"]  c #93AC08",
"[  c #85B203",
"{  c #8AB205",
"}  c #8DB903",
"|  c #85B70B",
" . c #8CB40A",
".. c #8EB90B",
"X. c #91B505",
"o. c #92BB04",
"O. c #92B40C",
"+. c #9BB20C",
"@. c #91BA0C",
"#. c #82A413",
"$. c #86AB11",
"%. c #8AAD13",
"&. c #84A41C",
"*. c #86A91C",
"=. c #8BAC1B",
"-. c #9AAB17",
";. c #87B714",
":. c #8DB412",
">. c #8EB21A",
",. c #91B513",
"<. c #9CB214",
"1. c #92BA13",
"2. c #91B41D",
"3. c #94BA1A",
"4. c #A6B213",
"5. c #A5B618",
"6. c #87992A",
"7. c #93992D",
"8. c #948837",
"9. c #8C9333",
"0. c #889A34",
"q. c #88A424",
"w. c #8DAC24",
"e. c #8DAD2B",
"r. c #8EB122",
"t. c #92B423",
"y. c #96B729",
"u. c #90B02F",
"i. c #8CA832",
"p. c #92A936",
"a. c #95B539",
"s. c #BEB027",
"d. c #A4B83A",
"f. c #D2B436",
"g. c #97C20B",
"h. c #8DC118",
"j. c #9FC33E",
"k. c #8F8E4A",
"l. c #959843",
"z. c #8A9759",
"x. c #AE8958",
"c. c #9AAA4C",
"v. c #9BB944",
"b. c #95A557",
"n. c #98B253",
"m. c #A2B847",
"M. c #ADB152",
"N. c #8E9B6A",
"B. c #8D9275",
"V. c #969D78",
"C. c #BC8B6A",
"Z. c #AA9271",
"A. c #9CAD68",
"S. c #AEAA71",
"D. c #C08259",
"F. c #D4885B",
"G. c #E88D5B",
"H. c #C68B6A",
"J. c #CE956F",
"K. c #D69873",
"L. c #E89568",
"P. c #F39B6F",
"I. c #E79773",
"U. c #D2A179",
"Y. c #F6A46D",
"T. c #E7A57A",
"R. c #F6A576",
"E. c #FBAB75",
"W. c #F5AD7C",
"Q. c #FAAC7B",
"!. c #FCB07C",
"~. c #A2C34B",
"^. c #A4C353",
"/. c #B7CB5F",
"(. c #B6D46C",
"). c #B2CB78",
"_. c #BBD77A",
"`. c #C5E47D",
"'. c #947D81",
"]. c #8C8887",
"[. c #999789",
"{. c #999796",
"}. c #AC8884",
"|. c #AA9B9C",
" X c #BA9996",
".X c #9CA583",
"XX c #A5A985",
"oX c #B3AC92",
"OX c #9F9EA0",
"+X c #9FA0A4",
"@X c #AAAAA9",
"#X c #B2B0AC",
"$X c #B5B3B5",
"%X c #BCBCBD",
"&X c #CC958B",
"*X c #C39997",
"=X c #C39B9B",
"-X c #C99B9C",
";X c #CFAF92",
":X c #CAA89D",
">X c #D1AC9A",
",X c #E6AA85",
"<X c #F4AE82",
"1X c #FCAD81",
"2X c #F5B588",
"3X c #C39DA0",
"4X c #C6A7A8",
"5X c #D6AAA2",
"6X c #C2B4AB",
"7X c #D9B6A8",
"8X c #C8B8B8",
"9X c #D1B9B9",
"0X c #E7BEAF",
"qX c #B8CB8D",
"wX c #C5D78C",
"eX c #C6DE9A",
"rX c #F2C09E",
"tX c #CDE595",
"yX c #C5C2BA",
"uX c #F2C5A5",
"iX c #ECC8B4",
"pX c #F5C8BB",
"aX c #F5D4BB",
"sX c #D3E6B4",
"dX c #BCBEC4",
"fX c #C3BFC0",
"gX c #BFC2C2",
"hX c #C5C5C6",
"jX c #CBCBCB",
"kX c #D8C9C6",
"lX c #CFD0D1",
"zX c #D7D8D8",
"xX c #E0CFCE",
"cX c #FDC7C2",
"vX c #E5D9CC",
"bX c #F3DBC8",
"nX c #E3D6D3",
"mX c #E3DDDD",
"MX c #E8FACA",
"NX c #E8E3DB",
"BX c #F6E6D6",
"VX c #DFDCE0",
"CX c #E0DFE1",
"ZX c #E3E3E3",
"AX c #EAE7E7",
"SX c #ECEBEB",
"DX c #F5EBE7",
"FX c #FBF4EC",
"GX c #EEEFF1",
"HX c #F4F4F3",
"JX c #FBF9F5",
"KX c #F7F8F8",
"LX c #FCFCFC",
/* pixels */
" . . .{  . . . ...{ { { :... . ... . . . .@. . .{  ... . ... . .( {  . . . . . .@.R p.tXtX^.*.:. . . . . . . . . . . . .",
" . . . . . . . . . .{  . .:. . .O. .{  . . . . . . . .:. . . . . . . .{ { '  .) o.( W v.~.a.;.{  . . . .{  . . ...{  . .",
" . . . . . . . . . .{  . . . .{  . .{  . .1. . .{  . . . . . . . . . .)  .{ |  .} } ( ` ( :.@.}  . . . . . . . . . . . .",
" . . . .{  . . .@.:. . . . . . . . . .{  . . .{  . . . . . . .{ { ) { |  . . . .{ @.@.[ } @.@. . . . . . . . . . . . . .",
" . . . . . . . . ...:.@. .{  . ... . . . . . . . . . . . ... . .( ) {  . . .....(  . .@.} {  .:. . . . . . . . . . . . .",
" . . . . . . . . . . . .{ {  . .:. . .{  . . . . . . . . .O. . .) [ { {  . . .:.>.$.| { { ) ) :. . . . .{  . . . .{  . .",
" . . . . . . . .{  . . . .{  .@... . . . . . . . . . ... . . .{  .{ { {  . . . .:...:.:. . . .}  . . . . . . . . . . . .",
"{  . . .{  . . .[  .:. . . . ... . .{  .:..... .{  .:. . . . . . .:. . .{  .{ [ { @...'  .1.o.[  . . .{  . . . . . . . .",
"[ } { [ 1.h.@.( c.v.*.( g.g.T >. . . . . . . . .} R i._.`.j.T [ )  .| | [ O...| ( { [  .O.>.%.' { { {  . .@. . . . . . .",
"..:.>.$.$.` O...qXtX/.r.,. .R ;.| {  . . .{ { ) #.l j l.~.u.| } O.@...| ) O.{ [  .{  .:.&.Q u U  .|  . . . . . . . . . .",
" .>.j.^.a.*. .[ jXMXtXa.=.1. .| ) ) {  .{ {  .%.0.M x s ! =.1.{ +. . .) ] 4.+.{ :. .:.*.z p p ^ *. . . . . . ... . . . .",
"{  .~.(.~.r...T qXtX(.e.$.,. . . . .{ '  . .O.q.S.:XJ 5 e U :.( O. .| X.4.5.5.+. . .*.Q 8 6 N Z.p. . . . . . . . . . . .",
"g.R r.j.*.( o.} >.y.3.) ) { [ {  . . . . .:.%.9.>XcXP q O e R ` ) { { ' 5.5.5.<. .$.Q r . w  X7Xb.&.{  . . . . . . . . .",
"@.( ( :.R ( o.} { ( { X.o.{ } {  .:. .@. . .&.S.0XcX-Xx O , k *.] )  .{ 5.5.5.:.:.Y t # . v >XiXZ.q. . . . ...O. . . . .",
"[  ...} } @. .[ o.) X.@.}  .@..... .O..... .6.;X0XcX5Xv # o 7 k 6.6.6.6.6.7.i.~ ~ j 7 . @ b 7XiX&Xi. . . . .:. . . . . .",
"` 3.1.{ { :.:.*.O.%.:.=._  .1... . . . . .$.l.:XcXcX=Xv + O 8 M k.S G x.G A g f f 7 @   . m 5XpX;Xl._  . . . . . . . . .",
" . .{  . . .{  .{  . .,.:. . .{ ,.:. .[ ( w.b.5XcXpX}.8 X w P J.H.F.L.I.I D 0 * # @ @ X   w  XcX0Xk.W  . ... . . . . .@.",
" . . . . . . . .{  . ..... .{ {  .:. .` ( 6.S.0XpX4Xm - q F ,XR.G.G.P.P.I g % X   @ - $ . - J 7X0XS.6. .@.:. . . . . ...",
" . . . . . . . .{ {  .@. . .{ { (  .,. .R 6.Z.:X*XJ w g G T.R.Y.G.G.P.I.V % % $ X & ; - & O 6 J  XV.6. . . . .{  . . . .",
" . . . . . . . . . . . .1. . . .| :.1. ._ i A K S Z F H.,XW.E.Y.P.I.R.I.B % = = & - ; 5 < * & 5 x b ^  . . .{ {  . . .{ ",
" . . .|  . . . . . . . . . . . .:.:. . .$.9.x.C.H.K.,X<XQ.E.E.E.E.R.1XI.h % 5 5 - > 4 ; < < > * @ 4 Q {  . . .{ [ { {  .",
" . . .{  . . . . . . . . . . . .:...:. .%.l.U.2XQ.W.<XW.E.E.E.E.E.E.W.T.Z = 5 5 5 ; > < ; < 1 1 5 > y `  . . . .( ) (  .",
" . . . . . . . . . . . . . ..... .:.1.:.=.8.L.!.E.E.Q.W.E.E.E.E.W.Q.2X,XK w 4 - ; 1 1 < < < < > > , y  .,... . .{ {  . .",
" . . . . . . . .:. . .{ |  .:...( 1.,...=.8.F.Y.E.E.W.Q.Q.R.Q.Q.W.2XuXcX9X|.B.x 5 - 1 ; < ; 1 > * * y :. ...:. . . . . .",
" .} ) ) ) )  .O.3. .) ] +.<.;.W  . .{ { ,.C I L.P.E.Q.T.D.x.T.W.2XaXDXFXFXFXAX%XN 5 * = $ = 1 = X X y :. ... .,. . . . .",
" . .{  .{  . . .h.;.1.O.X. . . . . .) { :.8.I P.R.Q.1XF.h h J.2XaXFXLXLXJXLXKXHXdXc * + X & ; = X X y :.O. . ... . . . .",
"O. .{  . .{  .O.$.;.| | | [ { +.{ ) {  .%.8.H.Q.E.Q.1XK.n n J.uXbXSXKXHXAXGXLXGXVXOX9   X & 1 5 > 2 i )  . . . . . . . .",
" . .X.O.O.O. .{ -.>.` E E } X.+.( { '  .' 8.H.W.Q.Q.1X,XJ.C.;XaXvXyXjXzXhXjXzXgXjXhXN @ & ; 1 5 4 a ~ ) { { { {  . . . .",
"{  . .O.X. .O. .f.s.4.} | |  . .) { {  .%.7.x.L.P.R.!.W.T.,XiXDXNX8X$XhXzXlXgX$XzXAX@X9 @ 5 5 > > a &. . . . .{  . . . .",
"X.O. . . . . . .f.s.-.] } .. . . . . . .O.=.k.I L.Y.Q.E.<XuXBXJXJXSXCXSXKXGXCXZXGXLXVX'.4 @ @ + , l =...1.:.O...{  . . .",
" . .{ { { {  .O.-.-.) ) } ....:. . . . .{ ' 6.x.F.Y.E.!.rXbXFXJXLXLXLXLXLXLXLXLXLXLXKXzX].9 , # p Y :.O...@...:. . . . .",
"O. .) ) ) ) { O.E | .... . .` %...:. .{ ) ' &.8.C.<X2XaXBXFXLXLXLXLXLXLXLXLXLXLXLXLXLXKXmX@XN d j %.{  . . . . . . . . .",
"} { { (  . . .[  . . ... .{  . . . . . . .{ :.6.k.>XbXFXJXLXLXLXLXLXLXLXLXLXLXLXLXLXLXLXLXAXyX/ .X).j.[ [ } 2.r. . . . .",
"3.:.(  . .:.:.3. ...O. . . . .{  . . . . . . .$.0.N.yXNXHXKXLXLXLXLXLXLXLXLXLXLXLXLXLXKXHXzXoX~ S.m.r.[ } } X. . . . . .",
"t.$.( :...{ :.r. ... . . . . . . . . . . . . . .$.~ l..X#XkXVXDXFXKXJXLXLXLXLXLXKXSXNXjX#XXXoXn.y.t.O.) { } { {  . . . .",
"%.' } o.o. .( $. . . . .{  . . . . . . . . . .{  .' W ~ N.[.{.|.9XxXvXnXmXmXmXVXjX8X$XXXb.yXsX/.( ) '  .{ } { X. . . . .",
"[ @.o.[ } } @.{  . . . . . . . . . . . . . . . . . . . .a.V.L '.3X4X4X4X4X4X4X4X|. XoXM.y.wXwX5.( ) ' >.:.%. .X.{  . .{ ",
"} @...[ (  .X.} { {  . . . .:. . . . . . . . . . . . .#.z L  X-X-X-X-X=X X*X=X3X*X XqX5.X.d.d.( ) ' %.:.%.%.,.,. . . . .",
"{ ( r.j.a.w.[ }  . . . ... . ...{  . . . . . . . . .$.l 3 c  X5X*X=X3X3X-X-X-X=X&XC.S.d. .%.:.{  . . . .O. . .%. . . . .",
"{ ` v.qX_.a.W  . .{  . . . . .:.:.:.{  . . . . . .:.! f * d @XkX9X3X3X X*X*X*X:X5X&XS.M.y.E { ..O.{ { X.o.X. .(  . . . .",
":.i.).MXsXn._ o.1. . . . . .` *.r.e.>.O. . . .:.;.W j 8 o 4 ].CXAXxXkX9X7X8X9XkXbX5XC.n.t.{ { {  . . . . .{ { {  . .{  .",
"{ t.n._.(.p._ o.1. . . . .:.&.6.e.u.e.w.:. . .O. .~ x : o o N zXLXKXDXDXAXAXDXGXFX0XH.9.>. . .{ .. . . . . . . . . . . .",
"{ ,.y.y.*.` } o...,. . . .*.~ &.:.2.r.e.2. . . .:.^ d : # . c jXLXLXLXLXLXLXLXLXFX7XP C &. . .{ ..,... . . . . . . . . .",
")  .O.) ( } X.{  . . . .:.e.q.`  . .>.e.2. . . .;.k.x : : @ m kXKXLXLXLXLXLXLXLXFX6Xb j &.) |  ...O. . . . . . . . . . .",
" . .) X.X. . .O.:. .{  .3.u.r.{ ' #.Y ~ q.:. . .t.k.x 8 g h K xXJXLXLXLXLXLXLXLXHX$Xx t #. . . . . . . . . .{ {  . . . .",
"3.' (  . .) ' 3. . .|  .:.y.w.:.#.l e r Q *. . .t.l.D Z H J.0XBXJXLXLXLXLXKXLXLXJXgXx t #.{ '  . . . . .{ { { {  . . .{ ",
",.X.'  . .)  .O.O. .{  . .w.q.#.u 7 o # e ! `  .3.l.x.H.L.T.uXbXAXKXLXHXZXCXHXLXKXgXM j #. .{  . ... . . . .| {  . . . .",
"[ X.@.O.:.X. .[  . .{ {  .>.q.! 3 O # # 4 t ! *.>.0.x.H.I.,XbXnXzXGXLXGXgX#XZXJXHXgXL ^ *.:. . .:... .:. . . . . . . . .",
" . .{ {  .{ | ' ( { |  .'  .=.Q 3 # : 4 4 : r k.l.k.D n D >XNXmXjXAXLXHX@XOXCXLXDX$X[.b.2. . . .) o.t.p.o.O.w.@. . . . .",
" . . . . . .{  .( { )  . .{  .Y i a f d 4 # ; D H Z h 0 q '.fX8X@XlXLXKXdX@XZXLXzX{.B.A.y. . . .) } %.e.} } =.{  . . . .",
" .{  . . . .{ ) { {  . . . .{ { { ~ z./ z t a A G C B g c {.%X@XN {.CXGXdX@XCXSXhX{.]..Xn.2.O. .2.{  .,.{ X.t.o.{  . . .",
"{ { { ) ( ) { {  . . . . . . . ...` q.u.&.U U U 6.7.k.z.B.+X%X$X'.'.$XdX+X{.$X@X|.OX{.XXn.t.X. .t.{ o.o.{ X.1.X. . . . .",
"( ( {  . . . . . . . . . . . . ...( $.>.%.,. ._ ` %.t.a.c.A.S.oXXXXXV.V.B.N.N.N.z.b.b.v.y. . . .%. .X.o.' :.{ {  . . . .",
"{ {  .@...,...1. . . . . . . . .{ :...O.%.' )  .| { O.%.=.t.d.M.m.a.p.i.u.a.e.w.t.2.>.,. . . . .' 2.} @.m.v.{ )  . . . .",
"{  .:... . . .{  . .{ {  .{  . .:.1.o.[ ( ( ( 1.h.| ' ' { | ,.<.<.:.`  .:.,.;.(  . . . . . . . .X.y.) 2.qX_. . . . . . .",
"{  . . .{ ( ( (  . .{ { |  .{  .:.@.o.} 1.,. .@.E ( _ ] ,.:.{ ) O.( ` | ..,.O.'  . . . . . .{  .} y.T *.sXeXO. . . . . .",
" .`  .{  . .{ `  . . . . . . . . . . . . . . . . . . . . .| {  .' {  . . . . ...' ' g.g.[ 1.O.{ X. .{ { { ( { (  . . . .",
" . . .{  .)  . . . . . . . . . . . . . . . .{  . . . . . . . . . . . . . . .O. .,.( } { ` $.{ {  . . .{ { { {  . . . . .",
"{  . . . . . .{  . . . . . . . . .{  . . . . . . . . . . . . . . .{  . . . . . .3.) ` a.v.y.' o. ... . . .{  . . . . . .",
"|  . .{  .{  .'  . . . . . .{  . . . . . . . . . .{  . . . . . . .{  . . . . . .1.{ *.(.wXv.{ } 1.:. . . . . . . . . . ."
};
