/* XPM */
static char *result[] = {
/* columns rows colors chars-per-pixel */
"60 60 246 2 ",
"   c #6F5015",
".  c #507409",
"X  c #57790C",
"o  c #4C7B12",
"O  c #557A16",
"+  c #687C18",
"@  c #727312",
"#  c #7E4726",
"$  c #787C26",
"%  c #85741D",
"&  c #8E5E24",
"*  c #8C712E",
"=  c #9A7837",
"-  c #AC6E32",
";  c #A77839",
":  c #B5793C",
">  c #9C7945",
",  c #AC7B43",
"<  c #AA7748",
"1  c #B77947",
"2  c #C27F43",
"3  c #47870C",
"4  c #51820E",
"5  c #45900F",
"6  c #4C8416",
"7  c #528413",
"8  c #5B8214",
"9  c #548A14",
"0  c #59861A",
"q  c #548C1C",
"w  c #58951D",
"e  c #648719",
"r  c #63831C",
"t  c #73871A",
"y  c #63931B",
"u  c #7D9316",
"i  c #7EA602",
"p  c #7EAA02",
"a  c #7BBD12",
"s  c #5B8B22",
"d  c #588A27",
"f  c #589527",
"g  c #698A28",
"h  c #778827",
"j  c #748D2B",
"k  c #689629",
"l  c #779527",
"z  c #768F31",
"x  c #679637",
"c  c #759835",
"v  c #7CB328",
"b  c #7DA334",
"n  c #79A53A",
"m  c #6D9B44",
"M  c #749843",
"N  c #779251",
"B  c #78A445",
"V  c #87991B",
"C  c #86A405",
"Z  c #85AD04",
"A  c #8AAD05",
"S  c #84AB0C",
"D  c #8CAF0A",
"F  c #95AC07",
"G  c #92AE0B",
"H  c #85B103",
"J  c #8AB205",
"K  c #85B900",
"L  c #8DB903",
"P  c #85B40B",
"I  c #8CB40A",
"U  c #85BB0C",
"Y  c #8EB90B",
"T  c #92B504",
"R  c #91BB04",
"E  c #92B30C",
"W  c #99B20D",
"Q  c #92BA0C",
"!  c #85A717",
"~  c #85AB11",
"^  c #8AAE13",
"/  c #89AD1B",
"(  c #96AC17",
")  c #8DB412",
"_  c #8AB815",
"`  c #8DB21B",
"'  c #92B613",
"]  c #9BB715",
"[  c #92BA13",
"{  c #93B51B",
"}  c #95B91A",
"|  c #A7AD10",
" . c #A6B617",
".. c #86892A",
"X. c #84962B",
"o. c #939E2A",
"O. c #898937",
"+. c #958A38",
"@. c #869738",
"#. c #979738",
"$. c #A78638",
"%. c #BA863E",
"&. c #A6983C",
"*. c #B8963F",
"=. c #84A626",
"-. c #8CAE23",
";. c #8BAD2B",
":. c #98A827",
">. c #8EB223",
",. c #8BB32E",
"<. c #92B622",
"1. c #97B626",
"2. c #96B923",
"3. c #9ABB2B",
"4. c #84AC37",
"5. c #95AA36",
"6. c #88B338",
"7. c #94B634",
"8. c #95B33C",
"9. c #97BB38",
"0. c #A3A72A",
"q. c #A4B92B",
"w. c #A8A638",
"e. c #B3A839",
"r. c #A3BB33",
"t. c #A7BA3A",
"y. c #B1B83B",
"u. c #CF883E",
"i. c #CFB735",
"p. c #97C20B",
"a. c #92C217",
"s. c #9AC12B",
"d. c #99C335",
"f. c #9DC13C",
"g. c #A3C43A",
"h. c #A8C539",
"j. c #978743",
"k. c #8E9C47",
"l. c #989947",
"z. c #A88945",
"x. c #B98847",
"c. c #B48D4B",
"v. c #A99648",
"b. c #B2964A",
"n. c #B69948",
"m. c #BC9A4C",
"M. c #A98755",
"N. c #BC8D53",
"B. c #B98A57",
"V. c #AC9856",
"C. c #B79657",
"Z. c #BD9453",
"A. c #85AB48",
"S. c #98A945",
"D. c #87B545",
"F. c #8CB54C",
"G. c #9BBA44",
"H. c #98BA49",
"J. c #8BAC55",
"K. c #89B254",
"L. c #95B754",
"P. c #ABA549",
"I. c #BAA449",
"U. c #A9B946",
"Y. c #B5B648",
"T. c #ACA759",
"R. c #B7A857",
"E. c #ADB655",
"W. c #B8B757",
"Q. c #B5B55C",
"!. c #B98A66",
"~. c #B99965",
"^. c #B3906D",
"/. c #AFAF61",
"(. c #BBA76A",
"). c #B9B665",
"_. c #BAA978",
"`. c #C38444",
"'. c #C48B43",
"]. c #CB8D46",
"[. c #C3844E",
"{. c #C48B4B",
"}. c #CC8C4B",
"|. c #D38949",
" X c #C49749",
".X c #C3924F",
"XX c #CA934C",
"oX c #D59348",
"OX c #C58C52",
"+X c #CB8B53",
"@X c #C78958",
"#X c #C39353",
"$X c #CC9253",
"%X c #C79B57",
"&X c #C5935A",
"*X c #CB945C",
"=X c #D49559",
"-X c #E09443",
";X c #C4B64F",
":X c #C4A655",
">X c #C28562",
",X c #CA9463",
"<X c #C89A67",
"1X c #D49A65",
"2X c #C99974",
"3X c #D29A74",
"4X c #C4A165",
"5X c #C7A467",
"6X c #D0AE6B",
"7X c #C4B669",
"8X c #C9A374",
"9X c #D5A676",
"0X c #98C244",
"qX c #99C153",
"wX c #A2C243",
"eX c #A5C44A",
"rX c #BAC24D",
"tX c #A5C456",
"yX c #B6C75C",
"uX c #B7D068",
"iX c #B2CB79",
"pX c #BBD679",
"aX c #C8D27B",
"sX c #C5E47D",
"dX c #DE9C88",
"fX c #D3A886",
"gX c #DAB589",
"hX c #D8AC96",
"jX c #E6B487",
"kX c #E3B797",
"lX c #B8CB8D",
"zX c #C5D88C",
"xX c #C6D99A",
"cX c #F7C396",
"vX c #CCEB84",
"bX c #CDE595",
"nX c #D0D4AB",
"mX c #F2D3B1",
"MX c #D0E5AD",
"NX c #FBE4B8",
"BX c #FFD7CF",
"VX c #FDE8CB",
"CX c #EEF4CD",
"ZX c #FDE9D1",
"AX c #F2EFE0",
"SX c #FEF5E5",
/* pixels */
"I I I I I I I I I I J I I [ I I Y I I I I I I I I I I I I I I I I A J P I I I I [ i 8.zXbXtX/ _ I I I I I I I J I I I I ",
"I I I I J I I I I I J P I E I I I I I J I [ I I I I Y I Q I I I I I J I I I J I R Z ! H.eX7.~ I J I I I I I I Y I I J I ",
"I I I I I I I I Y I I I I I I I E I J P I I I J I I I I I I I J J P I I D J J I L Y P S S I Q L I I I I I I I I I I I I ",
"I I I I I I I I E Y I I I I I J I I I I I Q I I J I I I ) I I I D J J P I I I I H R R J J p.[ J I I I I I I I I I I I I ",
"I I I I I I I I E I [ I I I P I I I I P I E I I I I E I I Q I J Z Z J J I I I Q S I Y R J J I ) I I I J I I J I I I J I ",
"I I I J I J I I I I I I I I I I Q I J J I Y I I I I Y I I I I I H D J J I I [ I ` P D I I J J ) I I I I I I I I I I I I ",
"I I I I I I I I J P I I J A I Y I I I I I I I I J I Y I E I I P J J J J I I I I ' I I ^ J I R J I I I I I I I I I I I I ",
"I I I I I I I I J J [ I I J I Y I I I I I [ I I P I I I I I I I ) I I I J J P H H Q [ P I [ R H I I I I I I I I I I I I ",
"Z L J H [ a.Q Z L.U.^ Z p.p.p } I I I I I I I I R i ,.sXsX9.i L A I U U A I Y U S J J I I I I I J I I I I I I ) I I I I ",
"Y ) ` ~ ~ ~ I I lXxXyX/ [ Y p ~ I I I P I P J I R Z -.0XeX7.J L E Y Y U D T J H J I I I I I I I I I I I I I Y I I I I I ",
"P ^ f.tX8./ I H MXCXbX8.` ) J P A J J D I J J J Q ) ^ ! / } [ J W I I A F | W A I Y ' Y I I I J J P I I I Y I I I I I I ",
"J S h.sXwX>.Y p lXbXpX;.~ ) ) Y I J J J I I I I J I J Z Z ) ) Z Q I J I  . . .W I I I Y I I J J I I I J I E I Y I I I I ",
"Q Z <.f./ S R L =.3.] A Z J J J I I I E I I I I P I J J L Y J S G I J A  . . .] I J P I P J D Z J I I I I I I I I I I I ",
"Q Z Z ) i Z R L A Z H T L J J J I ) Y Y Y E ) Y [ I J I J J J ) T I P J W  . .T J J J I J J S J P J I I I I I Y I I I I ",
"H P Q R J Q I Z T A T Q Q I Y L ' I I Y I Y Y I I I I J P I I J E Y U Y J W J H H A J I J I J J I J I I I I I I I I I I ",
"S } [ H J Q ^ / I ^ ' / S J a.Y I I I I I I I I Z Q [ ^ ~ ) J Z I Y a.U I E Y a D J D I I I I I I I I I I I I E I I I J ",
"I I I I I I I I J I I Y Q I I A ) ) I P J [ ) J C ;.v a F i.;X( I I I I I J I I I I I J I I I I Y I I I Q I E I I I I I ",
"I I I I I I I I J I I ' I I J D I I ) J D P ) P T / v 6.y.;Xe.W I I I I I I I I I I I J J I I I ) I I I I [ I P I I Y Q ",
"I I I I I I I I J J I Y E Y P I Z I ) P Z D I ' T Z 0XxXMX7X| T I I I I I I I I I I I I I I I I I I J I I I I J I I I I ",
"I I I I I J I I I P I Y ) I I J J ) ' I D P ) P W Z d.MXMXrXA ) I I I I I I I I E Q I I I I Y [ I I J I I I J A I I I I ",
"J I I I I I I I I I I E I I I I ) ) ) I ) ) [ P 1.Z H G.U.T Z >.I I I I I I I I Y I J I I I I I I J J J I I I P A J J P ",
"I I I I I I I I I I I I { ' I I [ ) I I [ a.' J { J H Z A J H -.I I I I } I I J J I 1.J J J J { } J I P I } } J Z H D I ",
"I I I I I I 1.P.h.I I } ).E.I I I [ ) ) ) [ ) P J [ ] T L { 8.( E I Q y.(.eXI I ' W.(.9.I I ' ).R.} I I } ).).D J I I I ",
"I I I I I T.).aX_.3.) ).5X4X{ ) Z ) 4Xb.I I I ) B.b.:.A ) T.,XC.h.I U.9X3X!.rXI yX2X<X~.r.I yX<X~./.I ' 7X8X^.U.I I I I ",
"Q J A A S.V.5X5X(.U.r.5Xx.#Xc.a I (.&X1Xz.I U P.9X,Xv.[ W.1X#X1XR.2.(.1X1X3XT.<.(.*XXX<XY.U._.N.OX^.Y [ 3XOXZ.V.I I I I ",
"I I J D J 0.x.c.M.E.y.&X X'.c.P eX5XZ.9XT.I { fXjX1Xn.I Q.,X$X$XI.7XgX*Xc.<XR.' 5X#X'.*XI.R.B.c.$.V.E E P.*X[.5.I I I I ",
"T I I I I I {..XB.V.Q.`.u.+Xx.t.Y.v.:XjXv.2.U.~.,XN.c.9.5X,X+X'.$.8XkX<XR.C.R.1.5XB.1 2XjX6X< &.z.c.J F m.@X*X:.I I I I ",
"I I T E I w.: x.B.* < `.- [.< > = $.= C.=   = C.& ; = & M.< :  X- # !.> v.C.*   B., B.>X3X,X@X$.&.z.@ V &X1 1 ( I I I I ",
"I I I T E #X1 , !.* < +X: 1 9X^.M.Z.- %.;   j.Z.; x.B.!.hX>X- [.;   1 N.; M.!.* B.: - @X- & &X$.+.= = dXdX1 , ' I I I I ",
"I E I I I m.}.+X:X:XI.1X|.@X9Xt.).&X].x.$.Y.W.Z.{.}.N.W.hX2X+X=Xm.U.8X5X#XB.jX9XN.*X`.1XI.y.,XOX[.$.Y I 8X@XB.:.I I I I ",
"E I J J H *.u.}.m.y.q.+X|.|.:XD } %X].}.n.A 1.I.`.oX*.[ (.&X}.$X:X>.7X1X.X1X6XrX&X+X1X>XY.} ,X{.}.v.Y Y ) B.z.Y I I I I ",
"T I J H J *.oX].w.3.h.%X|.2 &.^ Q  X|.}.&.J ' m.oXu.n.Y ).&X'.1XW.p _.=XoX=XI.J 5X,X+X3XY.I b.}.}.R.I I I I I I J I I I ",
"J I J Z I n.].XXe.r.t.c.}.@X&.I I  X|.}.v.I '  X|.|.n.T Q.5X<X2XR.I ).oX-X=X;XI (.@XN.,XZ H w.{.+X~.7.A H T ' >.I I J I ",
"} ) D P Y I.XX}.&.1.[ } I I l.I I :X|.$X&.I I %X`.[.b.I Q.mXVXcXV.Y 7X=X|.x.R.I ) 2XcX9X~ 8.P.x., C.2.H J T I G ' I I I ",
"<.^ Z I Y &.'.`.e.I I I I I I I I  X].b.j.I I R.2XkX1.G E.ZXNXVX).J _.1X*XjX' I J ZXZXhX1.nXxX(.7.<.E H L L J J I I I I ",
"^ P J R L n.m.{.w.L I I I I I I I  X'.R.} Q } Q.I I I I U.mXNXkX).Y ).^.NXVXI I K SXZXSXt.MXCXuXZ A D I L J T L I I I I ",
"H Q R J J a.Q A b.I I T I I l.I I :X: { I J r.).I I I I /.!.6X; r.I Y _.NXSXJ Y H AXSXBX] zXzXSXVXZ ^ ) ( , 0.L I I I I ",
"J Q Y Z Z J Q L ( I I +.I I I I I %X].e.I Y 3.W.I J U.I ).%Xx., ' I ) fXgXVXI I I nXmX^.L U.9.mXZXP ` ^ / 0.*X#.I I I I ",
"J Z >.G.9./ S J 0.I I #.I I I [ I m.'.: v.Y P ~.z.6XC.I E.5X].OXY.I R.N.'.b.P.I l.M.&X,XH ^ } M.gXT.I I T 0.+X&.I I I I ",
"L S G.pXpX/.:.0.&.J J #.E I Y I I C.%.x.w.J 8.v.c.z.P.{ l.Z. Xx.n.:.j.#X'.n.w.I 3.b.z.m.` Z ( c.z.V.J T :.{.c.:.J I I I ",
"^ ;.iXCXMXR.$.= +.! X.O.^ ^ D u X.z.$.V.#.t j z.z.&.+.j k.v.b.v.O.+ l.v.+.&.X.@ #.j.j.j.+ V #.v.5.k.t ..+.v.v...I I I I ",
"I >.qXpXuXY.% % O.r O O.$ ..$ X h #.+.+.j.. j O.% +.... c O.* O.+ O k.* * t e @ ..h h + r V ..+.o.z + . +.O.l.l I I I I ",
"A ' 1.1.5.l...$ h o 8 g ..O.h . k X.$ #.z . c O.@ h + + c t u t r y j h ..e 8 X.h ....X y ;.X...t X v X.@.@.+ l I I I I ",
"A I I Z ;.c $ k.j o 3 X h l l 7 f r j @.+ s s + l l X 8 X t X.y 4 6 y ..@.8 7 k e X.l 9 9 c z 5.+ X y e l A.g b 3.[ I I ",
") J J J / g c c 0 3 3 O g j g q q k l y e 9 3 g @.e 4 o O g l 9 6 6 s z g O 6 d d j r 4 f d M c 8 7 o s c k k c d.0XI P ",
"} D Z Q I k ,.8.0 5 5 7 k ;.k k x c l l y 9 q k 4.X 9 q o j 4.o f 6 6 n x o 6 6 g b o 6 f x K.c o 6 4 d n q k c L.U.I I ",
"Q I D D ;.j 4.f.c w 5 s b 9.x m m c 0X0Xf f f m 0Xk w s d F.H.f s 6 k 9.n f q d n d.6 q d M H.D.q 0 0 x 0Xk k F.J.3.I I ",
"A Q Q E I Q H >.A.D.n A.s.K.F.K.N qX0XB 0XB m d.qXF.4.B F.d.K.K.A.M L.tXA.A.m M d.F.L.B M H.g.B A.n m d.qXD.L.s.U.I I I ",
"J J J J J I I I Z H J I P r.2.` h.u L.iX9.{ eXI d.3.( t.' P 9.{ } wX' 3.f.1.3.r.I wXg.} wX} } f.} s.tX5.d.q.8.R I I I I ",
"I I I I P I I D A Z J I I J A A K <.pXvXf.H Y _ P Z A F ) U I ( D D P J P P D D I I I I I I I I A L ^ :.L L >.L I I J I ",
"I I I I I J J A J J I I ) I J I K ` tXuX<.i J ) ' I D I _ I G | G G A S H P J P I I I I I I I I { H T ' J T <.T I I I I ",
"J D J H J S J J I I I E I I I P p.S ;.>.p Z J H ] ' ' _ U P | |  .' D D P I _ ) J I I I I I I I <.J Q R J T [ J I I I I ",
"S J J I I I I I I I I I I I I I Y S ~ ` { [ Y Z J D I I U L  .i. .] ' P P U I _ I I I I I Q I I ^ D L T P ` J H I I I I ",
"J J I I Y [ Q I I I I I I I I I J I E Q ) I P I P P I P P H ] i. .' G J P ) P Z I I I I I J I I D } L Q U.G.H H I I J I ",
"J I ) Q I I I J I I P J I J I I P [ R H p Z Z [ a.P D D P Z T ( ' D Z P P I D Z I I I I I I I I J 3.A { lXpXE Q I I I I ",
"J J I I J Z Z Z I I I J J I J I I [ R R [ } J Q a p C F ' ) I A D Z Z S ' ' E D I J I I I I I I J 3.i -.MXxX) T I I I I ",
"P I J J J P I I I I I I I I I I I I I I I I I I I I I I I I I I J I I I I I E I I D p.R H [ E H I J J J H J D P I I I I ",
"I I P I I J D I I I I I I I I I I I I I I I I J I I I I I I I I P I I I I I Y I ' Z L H S ~ J J I I I I J J J J I I I I ",
"I J I I I J I I I I I I I I I I I I I I I I I I I I I I I I I I J J I I I I I I } J S 7.G.1.P R ) I I J I I I I I I I I ",
"J I I D I I D P J I I I I I I I I I I I I I I I J I I I I I I I I I I I I I ) I [ J ( iXzXG.D L Q Q I I I I I I I J I I "
};
